<mxfile host="app.diagrams.net" modified="2024-05-20T17:59:20.186Z" agent="Mozilla/5.0 (Windows NT 10.0; Win64; x64) AppleWebKit/537.36 (KHTML, like Gecko) Chrome/124.0.0.0 Safari/537.36" etag="-dOoYrb-lqkoUH0uD8IZ" version="24.4.4" type="github">
  <diagram name="PÃ¡gina-1" id="YanghgRlEMHAiLp9xVtV">
    <mxGraphModel dx="9784" dy="6198" grid="1" gridSize="10" guides="1" tooltips="1" connect="1" arrows="1" fold="1" page="1" pageScale="1" pageWidth="827" pageHeight="1169" math="0" shadow="0">
      <root>
        <mxCell id="0" />
        <mxCell id="1" parent="0" />
        <mxCell id="BRvZdCVV4lEwRIuZLhzR-1" value="Curso" style="swimlane;fontStyle=1;align=center;verticalAlign=top;childLayout=stackLayout;horizontal=1;startSize=26;horizontalStack=0;resizeParent=1;resizeParentMax=0;resizeLast=0;collapsible=1;marginBottom=0;whiteSpace=wrap;html=1;" parent="1" vertex="1">
          <mxGeometry x="-190" y="440" width="250" height="216" as="geometry" />
        </mxCell>
        <mxCell id="BRvZdCVV4lEwRIuZLhzR-2" value="- codigo: int" style="text;strokeColor=none;fillColor=none;align=left;verticalAlign=top;spacingLeft=4;spacingRight=4;overflow=hidden;rotatable=0;points=[[0,0.5],[1,0.5]];portConstraint=eastwest;whiteSpace=wrap;html=1;" parent="BRvZdCVV4lEwRIuZLhzR-1" vertex="1">
          <mxGeometry y="26" width="250" height="26" as="geometry" />
        </mxCell>
        <mxCell id="42rT5aTTlDtqcZQRqHW7-1" value="- nome: str" style="text;strokeColor=none;fillColor=none;align=left;verticalAlign=top;spacingLeft=4;spacingRight=4;overflow=hidden;rotatable=0;points=[[0,0.5],[1,0.5]];portConstraint=eastwest;whiteSpace=wrap;html=1;" parent="BRvZdCVV4lEwRIuZLhzR-1" vertex="1">
          <mxGeometry y="52" width="250" height="26" as="geometry" />
        </mxCell>
        <mxCell id="BRvZdCVV4lEwRIuZLhzR-3" value="" style="line;strokeWidth=1;fillColor=none;align=left;verticalAlign=middle;spacingTop=-1;spacingLeft=3;spacingRight=3;rotatable=0;labelPosition=right;points=[];portConstraint=eastwest;strokeColor=inherit;" parent="BRvZdCVV4lEwRIuZLhzR-1" vertex="1">
          <mxGeometry y="78" width="250" height="8" as="geometry" />
        </mxCell>
        <mxCell id="BRvZdCVV4lEwRIuZLhzR-4" value="+ &amp;lt;&amp;lt;create&amp;gt;&amp;gt; __init__(codigo: int, nome: str)" style="text;strokeColor=none;fillColor=none;align=left;verticalAlign=top;spacingLeft=4;spacingRight=4;overflow=hidden;rotatable=0;points=[[0,0.5],[1,0.5]];portConstraint=eastwest;whiteSpace=wrap;html=1;" parent="BRvZdCVV4lEwRIuZLhzR-1" vertex="1">
          <mxGeometry y="86" width="250" height="26" as="geometry" />
        </mxCell>
        <mxCell id="42rT5aTTlDtqcZQRqHW7-2" value="+ codigo(): int" style="text;strokeColor=none;fillColor=none;align=left;verticalAlign=top;spacingLeft=4;spacingRight=4;overflow=hidden;rotatable=0;points=[[0,0.5],[1,0.5]];portConstraint=eastwest;whiteSpace=wrap;html=1;" parent="BRvZdCVV4lEwRIuZLhzR-1" vertex="1">
          <mxGeometry y="112" width="250" height="26" as="geometry" />
        </mxCell>
        <mxCell id="42rT5aTTlDtqcZQRqHW7-3" value="+ codigo(codigo: int)" style="text;strokeColor=none;fillColor=none;align=left;verticalAlign=top;spacingLeft=4;spacingRight=4;overflow=hidden;rotatable=0;points=[[0,0.5],[1,0.5]];portConstraint=eastwest;whiteSpace=wrap;html=1;" parent="BRvZdCVV4lEwRIuZLhzR-1" vertex="1">
          <mxGeometry y="138" width="250" height="26" as="geometry" />
        </mxCell>
        <mxCell id="42rT5aTTlDtqcZQRqHW7-4" value="+ nome(): str" style="text;strokeColor=none;fillColor=none;align=left;verticalAlign=top;spacingLeft=4;spacingRight=4;overflow=hidden;rotatable=0;points=[[0,0.5],[1,0.5]];portConstraint=eastwest;whiteSpace=wrap;html=1;" parent="BRvZdCVV4lEwRIuZLhzR-1" vertex="1">
          <mxGeometry y="164" width="250" height="26" as="geometry" />
        </mxCell>
        <mxCell id="42rT5aTTlDtqcZQRqHW7-5" value="+ nome(nome: str)" style="text;strokeColor=none;fillColor=none;align=left;verticalAlign=top;spacingLeft=4;spacingRight=4;overflow=hidden;rotatable=0;points=[[0,0.5],[1,0.5]];portConstraint=eastwest;whiteSpace=wrap;html=1;" parent="BRvZdCVV4lEwRIuZLhzR-1" vertex="1">
          <mxGeometry y="190" width="250" height="26" as="geometry" />
        </mxCell>
        <mxCell id="42rT5aTTlDtqcZQRqHW7-6" value="Aluno" style="swimlane;fontStyle=1;align=center;verticalAlign=top;childLayout=stackLayout;horizontal=1;startSize=26;horizontalStack=0;resizeParent=1;resizeParentMax=0;resizeLast=0;collapsible=1;marginBottom=0;whiteSpace=wrap;html=1;" parent="1" vertex="1">
          <mxGeometry x="-320" y="40" width="470" height="320" as="geometry" />
        </mxCell>
        <mxCell id="ilpft1NIrWu3d606YRAC-2" value="&lt;div&gt;- matricula: int&lt;/div&gt;" style="text;strokeColor=none;fillColor=none;align=left;verticalAlign=top;spacingLeft=4;spacingRight=4;overflow=hidden;rotatable=0;points=[[0,0.5],[1,0.5]];portConstraint=eastwest;whiteSpace=wrap;html=1;" parent="42rT5aTTlDtqcZQRqHW7-6" vertex="1">
          <mxGeometry y="26" width="470" height="26" as="geometry" />
        </mxCell>
        <mxCell id="42rT5aTTlDtqcZQRqHW7-7" value="&lt;div&gt;- num_gols: int&lt;/div&gt;" style="text;strokeColor=none;fillColor=none;align=left;verticalAlign=top;spacingLeft=4;spacingRight=4;overflow=hidden;rotatable=0;points=[[0,0.5],[1,0.5]];portConstraint=eastwest;whiteSpace=wrap;html=1;" parent="42rT5aTTlDtqcZQRqHW7-6" vertex="1">
          <mxGeometry y="52" width="470" height="26" as="geometry" />
        </mxCell>
        <mxCell id="42rT5aTTlDtqcZQRqHW7-9" value="" style="line;strokeWidth=1;fillColor=none;align=left;verticalAlign=middle;spacingTop=-1;spacingLeft=3;spacingRight=3;rotatable=0;labelPosition=right;points=[];portConstraint=eastwest;strokeColor=inherit;" parent="42rT5aTTlDtqcZQRqHW7-6" vertex="1">
          <mxGeometry y="78" width="470" height="8" as="geometry" />
        </mxCell>
        <mxCell id="42rT5aTTlDtqcZQRqHW7-10" value="+ &amp;lt;&amp;lt;create&amp;gt;&amp;gt; __init__(matricula: int, curso: Curso, nome: str, cpf: str, data_nasc: data)" style="text;strokeColor=none;fillColor=none;align=left;verticalAlign=top;spacingLeft=4;spacingRight=4;overflow=hidden;rotatable=0;points=[[0,0.5],[1,0.5]];portConstraint=eastwest;whiteSpace=wrap;html=1;" parent="42rT5aTTlDtqcZQRqHW7-6" vertex="1">
          <mxGeometry y="86" width="470" height="26" as="geometry" />
        </mxCell>
        <mxCell id="42rT5aTTlDtqcZQRqHW7-11" value="+ matricula(): int" style="text;strokeColor=none;fillColor=none;align=left;verticalAlign=top;spacingLeft=4;spacingRight=4;overflow=hidden;rotatable=0;points=[[0,0.5],[1,0.5]];portConstraint=eastwest;whiteSpace=wrap;html=1;" parent="42rT5aTTlDtqcZQRqHW7-6" vertex="1">
          <mxGeometry y="112" width="470" height="26" as="geometry" />
        </mxCell>
        <mxCell id="42rT5aTTlDtqcZQRqHW7-12" value="+ matricula(matricula: int)" style="text;strokeColor=none;fillColor=none;align=left;verticalAlign=top;spacingLeft=4;spacingRight=4;overflow=hidden;rotatable=0;points=[[0,0.5],[1,0.5]];portConstraint=eastwest;whiteSpace=wrap;html=1;" parent="42rT5aTTlDtqcZQRqHW7-6" vertex="1">
          <mxGeometry y="138" width="470" height="26" as="geometry" />
        </mxCell>
        <mxCell id="42rT5aTTlDtqcZQRqHW7-18" value="+ curso(): Curso" style="text;strokeColor=none;fillColor=none;align=left;verticalAlign=top;spacingLeft=4;spacingRight=4;overflow=hidden;rotatable=0;points=[[0,0.5],[1,0.5]];portConstraint=eastwest;whiteSpace=wrap;html=1;" parent="42rT5aTTlDtqcZQRqHW7-6" vertex="1">
          <mxGeometry y="164" width="470" height="26" as="geometry" />
        </mxCell>
        <mxCell id="ilpft1NIrWu3d606YRAC-1" value="+ curso(curso: Curso)" style="text;strokeColor=none;fillColor=none;align=left;verticalAlign=top;spacingLeft=4;spacingRight=4;overflow=hidden;rotatable=0;points=[[0,0.5],[1,0.5]];portConstraint=eastwest;whiteSpace=wrap;html=1;" parent="42rT5aTTlDtqcZQRqHW7-6" vertex="1">
          <mxGeometry y="190" width="470" height="26" as="geometry" />
        </mxCell>
        <mxCell id="ilpft1NIrWu3d606YRAC-3" value="+ curso(curso: Curso)" style="text;strokeColor=none;fillColor=none;align=left;verticalAlign=top;spacingLeft=4;spacingRight=4;overflow=hidden;rotatable=0;points=[[0,0.5],[1,0.5]];portConstraint=eastwest;whiteSpace=wrap;html=1;" parent="42rT5aTTlDtqcZQRqHW7-6" vertex="1">
          <mxGeometry y="216" width="470" height="26" as="geometry" />
        </mxCell>
        <mxCell id="ilpft1NIrWu3d606YRAC-4" value="+ num_gols(): int" style="text;strokeColor=none;fillColor=none;align=left;verticalAlign=top;spacingLeft=4;spacingRight=4;overflow=hidden;rotatable=0;points=[[0,0.5],[1,0.5]];portConstraint=eastwest;whiteSpace=wrap;html=1;" parent="42rT5aTTlDtqcZQRqHW7-6" vertex="1">
          <mxGeometry y="242" width="470" height="26" as="geometry" />
        </mxCell>
        <mxCell id="42rT5aTTlDtqcZQRqHW7-19" value="+ adiciona_gol()" style="text;strokeColor=none;fillColor=none;align=left;verticalAlign=top;spacingLeft=4;spacingRight=4;overflow=hidden;rotatable=0;points=[[0,0.5],[1,0.5]];portConstraint=eastwest;whiteSpace=wrap;html=1;" parent="42rT5aTTlDtqcZQRqHW7-6" vertex="1">
          <mxGeometry y="268" width="470" height="26" as="geometry" />
        </mxCell>
        <mxCell id="z-3jtgrBwZ_cu0U_5YFZ-8" value="+ remove_gol()" style="text;strokeColor=none;fillColor=none;align=left;verticalAlign=top;spacingLeft=4;spacingRight=4;overflow=hidden;rotatable=0;points=[[0,0.5],[1,0.5]];portConstraint=eastwest;whiteSpace=wrap;html=1;" vertex="1" parent="42rT5aTTlDtqcZQRqHW7-6">
          <mxGeometry y="294" width="470" height="26" as="geometry" />
        </mxCell>
        <mxCell id="42rT5aTTlDtqcZQRqHW7-24" value="Arbitro" style="swimlane;fontStyle=1;align=center;verticalAlign=top;childLayout=stackLayout;horizontal=1;startSize=26;horizontalStack=0;resizeParent=1;resizeParentMax=0;resizeLast=0;collapsible=1;marginBottom=0;whiteSpace=wrap;html=1;" parent="1" vertex="1">
          <mxGeometry x="-831" y="440" width="430" height="164" as="geometry" />
        </mxCell>
        <mxCell id="42rT5aTTlDtqcZQRqHW7-29" value="- num_partidas: int" style="text;strokeColor=none;fillColor=none;align=left;verticalAlign=top;spacingLeft=4;spacingRight=4;overflow=hidden;rotatable=0;points=[[0,0.5],[1,0.5]];portConstraint=eastwest;whiteSpace=wrap;html=1;" parent="42rT5aTTlDtqcZQRqHW7-24" vertex="1">
          <mxGeometry y="26" width="430" height="26" as="geometry" />
        </mxCell>
        <mxCell id="42rT5aTTlDtqcZQRqHW7-30" value="" style="line;strokeWidth=1;fillColor=none;align=left;verticalAlign=middle;spacingTop=-1;spacingLeft=3;spacingRight=3;rotatable=0;labelPosition=right;points=[];portConstraint=eastwest;strokeColor=inherit;" parent="42rT5aTTlDtqcZQRqHW7-24" vertex="1">
          <mxGeometry y="52" width="430" height="8" as="geometry" />
        </mxCell>
        <mxCell id="42rT5aTTlDtqcZQRqHW7-31" value="+ &amp;lt;&amp;lt;create&amp;gt;&amp;gt; __init__(nome: str, cpf: str, data_nasc: datetime)" style="text;strokeColor=none;fillColor=none;align=left;verticalAlign=top;spacingLeft=4;spacingRight=4;overflow=hidden;rotatable=0;points=[[0,0.5],[1,0.5]];portConstraint=eastwest;whiteSpace=wrap;html=1;" parent="42rT5aTTlDtqcZQRqHW7-24" vertex="1">
          <mxGeometry y="60" width="430" height="26" as="geometry" />
        </mxCell>
        <mxCell id="BlP67hDM90NLHeMDUVXd-2" value="+ num_partidas(): int" style="text;strokeColor=none;fillColor=none;align=left;verticalAlign=top;spacingLeft=4;spacingRight=4;overflow=hidden;rotatable=0;points=[[0,0.5],[1,0.5]];portConstraint=eastwest;whiteSpace=wrap;html=1;" parent="42rT5aTTlDtqcZQRqHW7-24" vertex="1">
          <mxGeometry y="86" width="430" height="26" as="geometry" />
        </mxCell>
        <mxCell id="BlP67hDM90NLHeMDUVXd-3" value="+ adiciona_partida()" style="text;strokeColor=none;fillColor=none;align=left;verticalAlign=top;spacingLeft=4;spacingRight=4;overflow=hidden;rotatable=0;points=[[0,0.5],[1,0.5]];portConstraint=eastwest;whiteSpace=wrap;html=1;" parent="42rT5aTTlDtqcZQRqHW7-24" vertex="1">
          <mxGeometry y="112" width="430" height="26" as="geometry" />
        </mxCell>
        <mxCell id="z-3jtgrBwZ_cu0U_5YFZ-1" value="+ remove_partida()" style="text;strokeColor=none;fillColor=none;align=left;verticalAlign=top;spacingLeft=4;spacingRight=4;overflow=hidden;rotatable=0;points=[[0,0.5],[1,0.5]];portConstraint=eastwest;whiteSpace=wrap;html=1;" vertex="1" parent="42rT5aTTlDtqcZQRqHW7-24">
          <mxGeometry y="138" width="430" height="26" as="geometry" />
        </mxCell>
        <mxCell id="BlP67hDM90NLHeMDUVXd-4" value="Equipe" style="swimlane;fontStyle=1;align=center;verticalAlign=top;childLayout=stackLayout;horizontal=1;startSize=26;horizontalStack=0;resizeParent=1;resizeParentMax=0;resizeLast=0;collapsible=1;marginBottom=0;whiteSpace=wrap;html=1;" parent="1" vertex="1">
          <mxGeometry x="360" y="30" width="360" height="646" as="geometry" />
        </mxCell>
        <mxCell id="BlP67hDM90NLHeMDUVXd-5" value="- nome: str" style="text;strokeColor=none;fillColor=none;align=left;verticalAlign=top;spacingLeft=4;spacingRight=4;overflow=hidden;rotatable=0;points=[[0,0.5],[1,0.5]];portConstraint=eastwest;whiteSpace=wrap;html=1;" parent="BlP67hDM90NLHeMDUVXd-4" vertex="1">
          <mxGeometry y="26" width="360" height="26" as="geometry" />
        </mxCell>
        <mxCell id="OSObfnmbwBIl3ngkpUWz-45" value="- codigo: int" style="text;strokeColor=none;fillColor=none;align=left;verticalAlign=top;spacingLeft=4;spacingRight=4;overflow=hidden;rotatable=0;points=[[0,0.5],[1,0.5]];portConstraint=eastwest;whiteSpace=wrap;html=1;" parent="BlP67hDM90NLHeMDUVXd-4" vertex="1">
          <mxGeometry y="52" width="360" height="26" as="geometry" />
        </mxCell>
        <mxCell id="OSObfnmbwBIl3ngkpUWz-46" value="- pontos: int" style="text;strokeColor=none;fillColor=none;align=left;verticalAlign=top;spacingLeft=4;spacingRight=4;overflow=hidden;rotatable=0;points=[[0,0.5],[1,0.5]];portConstraint=eastwest;whiteSpace=wrap;html=1;" parent="BlP67hDM90NLHeMDUVXd-4" vertex="1">
          <mxGeometry y="78" width="360" height="26" as="geometry" />
        </mxCell>
        <mxCell id="OSObfnmbwBIl3ngkpUWz-88" value="- gols_marcados: int" style="text;strokeColor=none;fillColor=none;align=left;verticalAlign=top;spacingLeft=4;spacingRight=4;overflow=hidden;rotatable=0;points=[[0,0.5],[1,0.5]];portConstraint=eastwest;whiteSpace=wrap;html=1;" parent="BlP67hDM90NLHeMDUVXd-4" vertex="1">
          <mxGeometry y="104" width="360" height="26" as="geometry" />
        </mxCell>
        <mxCell id="OSObfnmbwBIl3ngkpUWz-90" value="- gols_sofridos: int" style="text;strokeColor=none;fillColor=none;align=left;verticalAlign=top;spacingLeft=4;spacingRight=4;overflow=hidden;rotatable=0;points=[[0,0.5],[1,0.5]];portConstraint=eastwest;whiteSpace=wrap;html=1;" parent="BlP67hDM90NLHeMDUVXd-4" vertex="1">
          <mxGeometry y="130" width="360" height="26" as="geometry" />
        </mxCell>
        <mxCell id="BlP67hDM90NLHeMDUVXd-9" value="" style="line;strokeWidth=1;fillColor=none;align=left;verticalAlign=middle;spacingTop=-1;spacingLeft=3;spacingRight=3;rotatable=0;labelPosition=right;points=[];portConstraint=eastwest;strokeColor=inherit;" parent="BlP67hDM90NLHeMDUVXd-4" vertex="1">
          <mxGeometry y="156" width="360" height="8" as="geometry" />
        </mxCell>
        <mxCell id="BlP67hDM90NLHeMDUVXd-10" value="+ &amp;lt;&amp;lt;create&amp;gt;&amp;gt; __init__(curso: Curso, nome: str, codigo: int)" style="text;strokeColor=none;fillColor=none;align=left;verticalAlign=top;spacingLeft=4;spacingRight=4;overflow=hidden;rotatable=0;points=[[0,0.5],[1,0.5]];portConstraint=eastwest;whiteSpace=wrap;html=1;" parent="BlP67hDM90NLHeMDUVXd-4" vertex="1">
          <mxGeometry y="164" width="360" height="26" as="geometry" />
        </mxCell>
        <mxCell id="BlP67hDM90NLHeMDUVXd-13" value="+ curso(): Curso" style="text;strokeColor=none;fillColor=none;align=left;verticalAlign=top;spacingLeft=4;spacingRight=4;overflow=hidden;rotatable=0;points=[[0,0.5],[1,0.5]];portConstraint=eastwest;whiteSpace=wrap;html=1;" parent="BlP67hDM90NLHeMDUVXd-4" vertex="1">
          <mxGeometry y="190" width="360" height="26" as="geometry" />
        </mxCell>
        <mxCell id="BlP67hDM90NLHeMDUVXd-14" value="+ curso(curso: Curso)" style="text;strokeColor=none;fillColor=none;align=left;verticalAlign=top;spacingLeft=4;spacingRight=4;overflow=hidden;rotatable=0;points=[[0,0.5],[1,0.5]];portConstraint=eastwest;whiteSpace=wrap;html=1;" parent="BlP67hDM90NLHeMDUVXd-4" vertex="1">
          <mxGeometry y="216" width="360" height="26" as="geometry" />
        </mxCell>
        <mxCell id="BlP67hDM90NLHeMDUVXd-15" value="+ alunos(): Aluno[ ]" style="text;strokeColor=none;fillColor=none;align=left;verticalAlign=top;spacingLeft=4;spacingRight=4;overflow=hidden;rotatable=0;points=[[0,0.5],[1,0.5]];portConstraint=eastwest;whiteSpace=wrap;html=1;" parent="BlP67hDM90NLHeMDUVXd-4" vertex="1">
          <mxGeometry y="242" width="360" height="26" as="geometry" />
        </mxCell>
        <mxCell id="ghrtqH5vHBBykUhaQ1Sb-2" value="+ adiciona_aluno(aluno: Aluno)" style="text;strokeColor=none;fillColor=none;align=left;verticalAlign=top;spacingLeft=4;spacingRight=4;overflow=hidden;rotatable=0;points=[[0,0.5],[1,0.5]];portConstraint=eastwest;whiteSpace=wrap;html=1;" parent="BlP67hDM90NLHeMDUVXd-4" vertex="1">
          <mxGeometry y="268" width="360" height="26" as="geometry" />
        </mxCell>
        <mxCell id="z-3jtgrBwZ_cu0U_5YFZ-25" value="+ remove_aluno(aluno: Aluno)" style="text;strokeColor=none;fillColor=none;align=left;verticalAlign=top;spacingLeft=4;spacingRight=4;overflow=hidden;rotatable=0;points=[[0,0.5],[1,0.5]];portConstraint=eastwest;whiteSpace=wrap;html=1;" vertex="1" parent="BlP67hDM90NLHeMDUVXd-4">
          <mxGeometry y="294" width="360" height="26" as="geometry" />
        </mxCell>
        <mxCell id="OSObfnmbwBIl3ngkpUWz-47" value="+ codigo(): int" style="text;strokeColor=none;fillColor=none;align=left;verticalAlign=top;spacingLeft=4;spacingRight=4;overflow=hidden;rotatable=0;points=[[0,0.5],[1,0.5]];portConstraint=eastwest;whiteSpace=wrap;html=1;" parent="BlP67hDM90NLHeMDUVXd-4" vertex="1">
          <mxGeometry y="320" width="360" height="26" as="geometry" />
        </mxCell>
        <mxCell id="OSObfnmbwBIl3ngkpUWz-48" value="+ codigo(codigo: int)" style="text;strokeColor=none;fillColor=none;align=left;verticalAlign=top;spacingLeft=4;spacingRight=4;overflow=hidden;rotatable=0;points=[[0,0.5],[1,0.5]];portConstraint=eastwest;whiteSpace=wrap;html=1;" parent="BlP67hDM90NLHeMDUVXd-4" vertex="1">
          <mxGeometry y="346" width="360" height="26" as="geometry" />
        </mxCell>
        <mxCell id="BlP67hDM90NLHeMDUVXd-11" value="+ nome(): str" style="text;strokeColor=none;fillColor=none;align=left;verticalAlign=top;spacingLeft=4;spacingRight=4;overflow=hidden;rotatable=0;points=[[0,0.5],[1,0.5]];portConstraint=eastwest;whiteSpace=wrap;html=1;" parent="BlP67hDM90NLHeMDUVXd-4" vertex="1">
          <mxGeometry y="372" width="360" height="26" as="geometry" />
        </mxCell>
        <mxCell id="BlP67hDM90NLHeMDUVXd-12" value="+ nome(nome: str)" style="text;strokeColor=none;fillColor=none;align=left;verticalAlign=top;spacingLeft=4;spacingRight=4;overflow=hidden;rotatable=0;points=[[0,0.5],[1,0.5]];portConstraint=eastwest;whiteSpace=wrap;html=1;" parent="BlP67hDM90NLHeMDUVXd-4" vertex="1">
          <mxGeometry y="398" width="360" height="26" as="geometry" />
        </mxCell>
        <mxCell id="OSObfnmbwBIl3ngkpUWz-49" value="+ pontos(): int" style="text;strokeColor=none;fillColor=none;align=left;verticalAlign=top;spacingLeft=4;spacingRight=4;overflow=hidden;rotatable=0;points=[[0,0.5],[1,0.5]];portConstraint=eastwest;whiteSpace=wrap;html=1;" parent="BlP67hDM90NLHeMDUVXd-4" vertex="1">
          <mxGeometry y="424" width="360" height="26" as="geometry" />
        </mxCell>
        <mxCell id="XdRAYDsdtGcGILHuMkyT-34" value="&amp;nbsp;+ adiciona_pontos(pontos: int)" style="text;html=1;align=left;verticalAlign=middle;whiteSpace=wrap;rounded=0;" parent="BlP67hDM90NLHeMDUVXd-4" vertex="1">
          <mxGeometry y="450" width="360" height="20" as="geometry" />
        </mxCell>
        <mxCell id="z-3jtgrBwZ_cu0U_5YFZ-26" value="&amp;nbsp;+ remove_pontos(pontos: int)" style="text;html=1;align=left;verticalAlign=middle;whiteSpace=wrap;rounded=0;" vertex="1" parent="BlP67hDM90NLHeMDUVXd-4">
          <mxGeometry y="470" width="360" height="20" as="geometry" />
        </mxCell>
        <mxCell id="ilpft1NIrWu3d606YRAC-8" value="+ gols_marcados(): int" style="text;strokeColor=none;fillColor=none;align=left;verticalAlign=top;spacingLeft=4;spacingRight=4;overflow=hidden;rotatable=0;points=[[0,0.5],[1,0.5]];portConstraint=eastwest;whiteSpace=wrap;html=1;" parent="BlP67hDM90NLHeMDUVXd-4" vertex="1">
          <mxGeometry y="490" width="360" height="26" as="geometry" />
        </mxCell>
        <mxCell id="ghrtqH5vHBBykUhaQ1Sb-4" value="+ adiciona_gols_marcados(gols: int)" style="text;strokeColor=none;fillColor=none;align=left;verticalAlign=top;spacingLeft=4;spacingRight=4;overflow=hidden;rotatable=0;points=[[0,0.5],[1,0.5]];portConstraint=eastwest;whiteSpace=wrap;html=1;" parent="BlP67hDM90NLHeMDUVXd-4" vertex="1">
          <mxGeometry y="516" width="360" height="26" as="geometry" />
        </mxCell>
        <mxCell id="z-3jtgrBwZ_cu0U_5YFZ-27" value="+ remove_gols_marcados(gols: int)" style="text;strokeColor=none;fillColor=none;align=left;verticalAlign=top;spacingLeft=4;spacingRight=4;overflow=hidden;rotatable=0;points=[[0,0.5],[1,0.5]];portConstraint=eastwest;whiteSpace=wrap;html=1;" vertex="1" parent="BlP67hDM90NLHeMDUVXd-4">
          <mxGeometry y="542" width="360" height="26" as="geometry" />
        </mxCell>
        <mxCell id="ilpft1NIrWu3d606YRAC-9" value="+ gols_sofridos(): int" style="text;strokeColor=none;fillColor=none;align=left;verticalAlign=top;spacingLeft=4;spacingRight=4;overflow=hidden;rotatable=0;points=[[0,0.5],[1,0.5]];portConstraint=eastwest;whiteSpace=wrap;html=1;" parent="BlP67hDM90NLHeMDUVXd-4" vertex="1">
          <mxGeometry y="568" width="360" height="26" as="geometry" />
        </mxCell>
        <mxCell id="ghrtqH5vHBBykUhaQ1Sb-5" value="+ adiciona_gols_sofridos(gols: int)" style="text;strokeColor=none;fillColor=none;align=left;verticalAlign=top;spacingLeft=4;spacingRight=4;overflow=hidden;rotatable=0;points=[[0,0.5],[1,0.5]];portConstraint=eastwest;whiteSpace=wrap;html=1;" parent="BlP67hDM90NLHeMDUVXd-4" vertex="1">
          <mxGeometry y="594" width="360" height="26" as="geometry" />
        </mxCell>
        <mxCell id="z-3jtgrBwZ_cu0U_5YFZ-54" value="+ remove_gols_sofridos(gols: int)" style="text;strokeColor=none;fillColor=none;align=left;verticalAlign=top;spacingLeft=4;spacingRight=4;overflow=hidden;rotatable=0;points=[[0,0.5],[1,0.5]];portConstraint=eastwest;whiteSpace=wrap;html=1;" vertex="1" parent="BlP67hDM90NLHeMDUVXd-4">
          <mxGeometry y="620" width="360" height="26" as="geometry" />
        </mxCell>
        <mxCell id="VWIoromdeVteyUXSWohZ-1" value="Campeonato" style="swimlane;fontStyle=1;align=center;verticalAlign=top;childLayout=stackLayout;horizontal=1;startSize=26;horizontalStack=0;resizeParent=1;resizeParentMax=0;resizeLast=0;collapsible=1;marginBottom=0;whiteSpace=wrap;html=1;" parent="1" vertex="1">
          <mxGeometry x="1000" y="40" width="360" height="346" as="geometry" />
        </mxCell>
        <mxCell id="ilpft1NIrWu3d606YRAC-17" value="&lt;div&gt;- codigo: int&lt;/div&gt;" style="text;strokeColor=none;fillColor=none;align=left;verticalAlign=top;spacingLeft=4;spacingRight=4;overflow=hidden;rotatable=0;points=[[0,0.5],[1,0.5]];portConstraint=eastwest;whiteSpace=wrap;html=1;" parent="VWIoromdeVteyUXSWohZ-1" vertex="1">
          <mxGeometry y="26" width="360" height="26" as="geometry" />
        </mxCell>
        <mxCell id="z-3jtgrBwZ_cu0U_5YFZ-80" value="- campeonato_iniciado: bool" style="text;strokeColor=none;fillColor=none;align=left;verticalAlign=top;spacingLeft=4;spacingRight=4;overflow=hidden;rotatable=0;points=[[0,0.5],[1,0.5]];portConstraint=eastwest;whiteSpace=wrap;html=1;" vertex="1" parent="VWIoromdeVteyUXSWohZ-1">
          <mxGeometry y="52" width="360" height="26" as="geometry" />
        </mxCell>
        <mxCell id="ilpft1NIrWu3d606YRAC-15" value="" style="line;strokeWidth=1;fillColor=none;align=left;verticalAlign=middle;spacingTop=-1;spacingLeft=3;spacingRight=3;rotatable=0;labelPosition=right;points=[];portConstraint=eastwest;strokeColor=inherit;" parent="VWIoromdeVteyUXSWohZ-1" vertex="1">
          <mxGeometry y="78" width="360" height="8" as="geometry" />
        </mxCell>
        <mxCell id="ra7vQ8JuPsrU5PklDh2I-1" value="+ codigo(): int" style="text;strokeColor=none;fillColor=none;align=left;verticalAlign=top;spacingLeft=4;spacingRight=4;overflow=hidden;rotatable=0;points=[[0,0.5],[1,0.5]];portConstraint=eastwest;whiteSpace=wrap;html=1;" parent="VWIoromdeVteyUXSWohZ-1" vertex="1">
          <mxGeometry y="86" width="360" height="26" as="geometry" />
        </mxCell>
        <mxCell id="ra7vQ8JuPsrU5PklDh2I-2" value="+ codigo(codigo: int)" style="text;strokeColor=none;fillColor=none;align=left;verticalAlign=top;spacingLeft=4;spacingRight=4;overflow=hidden;rotatable=0;points=[[0,0.5],[1,0.5]];portConstraint=eastwest;whiteSpace=wrap;html=1;" parent="VWIoromdeVteyUXSWohZ-1" vertex="1">
          <mxGeometry y="112" width="360" height="26" as="geometry" />
        </mxCell>
        <mxCell id="VWIoromdeVteyUXSWohZ-7" value="+ equipes(): Equipe[ ]" style="text;strokeColor=none;fillColor=none;align=left;verticalAlign=top;spacingLeft=4;spacingRight=4;overflow=hidden;rotatable=0;points=[[0,0.5],[1,0.5]];portConstraint=eastwest;whiteSpace=wrap;html=1;" parent="VWIoromdeVteyUXSWohZ-1" vertex="1">
          <mxGeometry y="138" width="360" height="26" as="geometry" />
        </mxCell>
        <mxCell id="ghrtqH5vHBBykUhaQ1Sb-30" value="+ adiciona_equipe(equipe: Equipe)" style="text;strokeColor=none;fillColor=none;align=left;verticalAlign=top;spacingLeft=4;spacingRight=4;overflow=hidden;rotatable=0;points=[[0,0.5],[1,0.5]];portConstraint=eastwest;whiteSpace=wrap;html=1;" parent="VWIoromdeVteyUXSWohZ-1" vertex="1">
          <mxGeometry y="164" width="360" height="26" as="geometry" />
        </mxCell>
        <mxCell id="z-3jtgrBwZ_cu0U_5YFZ-78" value="+ remove_equipe(equipe: Equipe)" style="text;strokeColor=none;fillColor=none;align=left;verticalAlign=top;spacingLeft=4;spacingRight=4;overflow=hidden;rotatable=0;points=[[0,0.5],[1,0.5]];portConstraint=eastwest;whiteSpace=wrap;html=1;" vertex="1" parent="VWIoromdeVteyUXSWohZ-1">
          <mxGeometry y="190" width="360" height="26" as="geometry" />
        </mxCell>
        <mxCell id="VWIoromdeVteyUXSWohZ-10" value="+ partidas(): Partida[ ]" style="text;strokeColor=none;fillColor=none;align=left;verticalAlign=top;spacingLeft=4;spacingRight=4;overflow=hidden;rotatable=0;points=[[0,0.5],[1,0.5]];portConstraint=eastwest;whiteSpace=wrap;html=1;" parent="VWIoromdeVteyUXSWohZ-1" vertex="1">
          <mxGeometry y="216" width="360" height="26" as="geometry" />
        </mxCell>
        <mxCell id="ghrtqH5vHBBykUhaQ1Sb-45" value="+ adiciona_partida(partida: Partida)" style="text;strokeColor=none;fillColor=none;align=left;verticalAlign=top;spacingLeft=4;spacingRight=4;overflow=hidden;rotatable=0;points=[[0,0.5],[1,0.5]];portConstraint=eastwest;whiteSpace=wrap;html=1;" parent="VWIoromdeVteyUXSWohZ-1" vertex="1">
          <mxGeometry y="242" width="360" height="26" as="geometry" />
        </mxCell>
        <mxCell id="z-3jtgrBwZ_cu0U_5YFZ-79" value="+ remove_partida(partida: Partida)" style="text;strokeColor=none;fillColor=none;align=left;verticalAlign=top;spacingLeft=4;spacingRight=4;overflow=hidden;rotatable=0;points=[[0,0.5],[1,0.5]];portConstraint=eastwest;whiteSpace=wrap;html=1;" vertex="1" parent="VWIoromdeVteyUXSWohZ-1">
          <mxGeometry y="268" width="360" height="26" as="geometry" />
        </mxCell>
        <mxCell id="ilpft1NIrWu3d606YRAC-20" value="+ campeonato_iniciado(): bool" style="text;strokeColor=none;fillColor=none;align=left;verticalAlign=top;spacingLeft=4;spacingRight=4;overflow=hidden;rotatable=0;points=[[0,0.5],[1,0.5]];portConstraint=eastwest;whiteSpace=wrap;html=1;" parent="VWIoromdeVteyUXSWohZ-1" vertex="1">
          <mxGeometry y="294" width="360" height="26" as="geometry" />
        </mxCell>
        <mxCell id="ra7vQ8JuPsrU5PklDh2I-6" value="+ campeonato_iniciado(campeonato_iniciado: bool)" style="text;strokeColor=none;fillColor=none;align=left;verticalAlign=top;spacingLeft=4;spacingRight=4;overflow=hidden;rotatable=0;points=[[0,0.5],[1,0.5]];portConstraint=eastwest;whiteSpace=wrap;html=1;" parent="VWIoromdeVteyUXSWohZ-1" vertex="1">
          <mxGeometry y="320" width="360" height="26" as="geometry" />
        </mxCell>
        <mxCell id="VWIoromdeVteyUXSWohZ-15" value="Partida" style="swimlane;fontStyle=1;align=center;verticalAlign=top;childLayout=stackLayout;horizontal=1;startSize=26;horizontalStack=0;resizeParent=1;resizeParentMax=0;resizeLast=0;collapsible=1;marginBottom=0;whiteSpace=wrap;html=1;" parent="1" vertex="1">
          <mxGeometry x="760" y="584" width="660" height="892" as="geometry" />
        </mxCell>
        <mxCell id="VWIoromdeVteyUXSWohZ-16" value="- codigo: int" style="text;strokeColor=none;fillColor=none;align=left;verticalAlign=top;spacingLeft=4;spacingRight=4;overflow=hidden;rotatable=0;points=[[0,0.5],[1,0.5]];portConstraint=eastwest;whiteSpace=wrap;html=1;" parent="VWIoromdeVteyUXSWohZ-15" vertex="1">
          <mxGeometry y="26" width="660" height="26" as="geometry" />
        </mxCell>
        <mxCell id="hslSFGjoWzBSm_9_647L-2" value="- data_partida: datetime" style="text;strokeColor=none;fillColor=none;align=left;verticalAlign=top;spacingLeft=4;spacingRight=4;overflow=hidden;rotatable=0;points=[[0,0.5],[1,0.5]];portConstraint=eastwest;whiteSpace=wrap;html=1;" parent="VWIoromdeVteyUXSWohZ-15" vertex="1">
          <mxGeometry y="52" width="660" height="26" as="geometry" />
        </mxCell>
        <mxCell id="XdRAYDsdtGcGILHuMkyT-112" value="- equipe_casa: Equipe" style="text;strokeColor=none;fillColor=none;align=left;verticalAlign=top;spacingLeft=4;spacingRight=4;overflow=hidden;rotatable=0;points=[[0,0.5],[1,0.5]];portConstraint=eastwest;whiteSpace=wrap;html=1;" parent="VWIoromdeVteyUXSWohZ-15" vertex="1">
          <mxGeometry y="78" width="660" height="26" as="geometry" />
        </mxCell>
        <mxCell id="XdRAYDsdtGcGILHuMkyT-113" value="- equipe_visitante: Equipe" style="text;strokeColor=none;fillColor=none;align=left;verticalAlign=top;spacingLeft=4;spacingRight=4;overflow=hidden;rotatable=0;points=[[0,0.5],[1,0.5]];portConstraint=eastwest;whiteSpace=wrap;html=1;" parent="VWIoromdeVteyUXSWohZ-15" vertex="1">
          <mxGeometry y="104" width="660" height="26" as="geometry" />
        </mxCell>
        <mxCell id="z-3jtgrBwZ_cu0U_5YFZ-64" value="- arbitro: Arbitro" style="text;strokeColor=none;fillColor=none;align=left;verticalAlign=top;spacingLeft=4;spacingRight=4;overflow=hidden;rotatable=0;points=[[0,0.5],[1,0.5]];portConstraint=eastwest;whiteSpace=wrap;html=1;" vertex="1" parent="VWIoromdeVteyUXSWohZ-15">
          <mxGeometry y="130" width="660" height="26" as="geometry" />
        </mxCell>
        <mxCell id="VWIoromdeVteyUXSWohZ-29" value="- gols_equipe_casa: int" style="text;strokeColor=none;fillColor=none;align=left;verticalAlign=top;spacingLeft=4;spacingRight=4;overflow=hidden;rotatable=0;points=[[0,0.5],[1,0.5]];portConstraint=eastwest;whiteSpace=wrap;html=1;" parent="VWIoromdeVteyUXSWohZ-15" vertex="1">
          <mxGeometry y="156" width="660" height="26" as="geometry" />
        </mxCell>
        <mxCell id="z-3jtgrBwZ_cu0U_5YFZ-65" value="- artilheiros_equipe_casa: Aluno[ ]" style="text;strokeColor=none;fillColor=none;align=left;verticalAlign=top;spacingLeft=4;spacingRight=4;overflow=hidden;rotatable=0;points=[[0,0.5],[1,0.5]];portConstraint=eastwest;whiteSpace=wrap;html=1;" vertex="1" parent="VWIoromdeVteyUXSWohZ-15">
          <mxGeometry y="182" width="660" height="26" as="geometry" />
        </mxCell>
        <mxCell id="OSObfnmbwBIl3ngkpUWz-89" value="- gols_equipe_visitante: int" style="text;strokeColor=none;fillColor=none;align=left;verticalAlign=top;spacingLeft=4;spacingRight=4;overflow=hidden;rotatable=0;points=[[0,0.5],[1,0.5]];portConstraint=eastwest;whiteSpace=wrap;html=1;" parent="VWIoromdeVteyUXSWohZ-15" vertex="1">
          <mxGeometry y="208" width="660" height="26" as="geometry" />
        </mxCell>
        <mxCell id="z-3jtgrBwZ_cu0U_5YFZ-66" value="- artilheiros_equipe_visitante: Aluno[ ]" style="text;strokeColor=none;fillColor=none;align=left;verticalAlign=top;spacingLeft=4;spacingRight=4;overflow=hidden;rotatable=0;points=[[0,0.5],[1,0.5]];portConstraint=eastwest;whiteSpace=wrap;html=1;" vertex="1" parent="VWIoromdeVteyUXSWohZ-15">
          <mxGeometry y="234" width="660" height="26" as="geometry" />
        </mxCell>
        <mxCell id="OSObfnmbwBIl3ngkpUWz-91" value="- resultado(): str" style="text;strokeColor=none;fillColor=none;align=left;verticalAlign=top;spacingLeft=4;spacingRight=4;overflow=hidden;rotatable=0;points=[[0,0.5],[1,0.5]];portConstraint=eastwest;whiteSpace=wrap;html=1;" parent="VWIoromdeVteyUXSWohZ-15" vertex="1">
          <mxGeometry y="260" width="660" height="26" as="geometry" />
        </mxCell>
        <mxCell id="ghrtqH5vHBBykUhaQ1Sb-11" value="- partida_realizada(): bool&amp;nbsp;" style="text;strokeColor=none;fillColor=none;align=left;verticalAlign=top;spacingLeft=4;spacingRight=4;overflow=hidden;rotatable=0;points=[[0,0.5],[1,0.5]];portConstraint=eastwest;whiteSpace=wrap;html=1;" parent="VWIoromdeVteyUXSWohZ-15" vertex="1">
          <mxGeometry y="286" width="660" height="26" as="geometry" />
        </mxCell>
        <mxCell id="VWIoromdeVteyUXSWohZ-18" value="" style="line;strokeWidth=1;fillColor=none;align=left;verticalAlign=middle;spacingTop=-1;spacingLeft=3;spacingRight=3;rotatable=0;labelPosition=right;points=[];portConstraint=eastwest;strokeColor=inherit;" parent="VWIoromdeVteyUXSWohZ-15" vertex="1">
          <mxGeometry y="312" width="660" height="8" as="geometry" />
        </mxCell>
        <mxCell id="VWIoromdeVteyUXSWohZ-19" value="+ &amp;lt;&amp;lt;create&amp;gt;&amp;gt; __init__(codigo: int, data_partida: datetime, equipe_casa: Equipe, equipe_visitante: Equipe, arbitro: Arbitro)" style="text;strokeColor=none;fillColor=none;align=left;verticalAlign=top;spacingLeft=4;spacingRight=4;overflow=hidden;rotatable=0;points=[[0,0.5],[1,0.5]];portConstraint=eastwest;whiteSpace=wrap;html=1;" parent="VWIoromdeVteyUXSWohZ-15" vertex="1">
          <mxGeometry y="320" width="660" height="26" as="geometry" />
        </mxCell>
        <mxCell id="VWIoromdeVteyUXSWohZ-20" value="+ codigo(): int" style="text;strokeColor=none;fillColor=none;align=left;verticalAlign=top;spacingLeft=4;spacingRight=4;overflow=hidden;rotatable=0;points=[[0,0.5],[1,0.5]];portConstraint=eastwest;whiteSpace=wrap;html=1;" parent="VWIoromdeVteyUXSWohZ-15" vertex="1">
          <mxGeometry y="346" width="660" height="26" as="geometry" />
        </mxCell>
        <mxCell id="hslSFGjoWzBSm_9_647L-5" value="+ data_partida(): datetime" style="text;strokeColor=none;fillColor=none;align=left;verticalAlign=top;spacingLeft=4;spacingRight=4;overflow=hidden;rotatable=0;points=[[0,0.5],[1,0.5]];portConstraint=eastwest;whiteSpace=wrap;html=1;" parent="VWIoromdeVteyUXSWohZ-15" vertex="1">
          <mxGeometry y="372" width="660" height="26" as="geometry" />
        </mxCell>
        <mxCell id="VWIoromdeVteyUXSWohZ-30" value="+ data_partida(data_partida: datetime)" style="text;strokeColor=none;fillColor=none;align=left;verticalAlign=top;spacingLeft=4;spacingRight=4;overflow=hidden;rotatable=0;points=[[0,0.5],[1,0.5]];portConstraint=eastwest;whiteSpace=wrap;html=1;" parent="VWIoromdeVteyUXSWohZ-15" vertex="1">
          <mxGeometry y="398" width="660" height="26" as="geometry" />
        </mxCell>
        <mxCell id="VWIoromdeVteyUXSWohZ-31" value="+ equipe_casa(): Equipe" style="text;strokeColor=none;fillColor=none;align=left;verticalAlign=top;spacingLeft=4;spacingRight=4;overflow=hidden;rotatable=0;points=[[0,0.5],[1,0.5]];portConstraint=eastwest;whiteSpace=wrap;html=1;" parent="VWIoromdeVteyUXSWohZ-15" vertex="1">
          <mxGeometry y="424" width="660" height="26" as="geometry" />
        </mxCell>
        <mxCell id="VWIoromdeVteyUXSWohZ-21" value="+ equipe_casa(equipe_casa: Equipe)" style="text;strokeColor=none;fillColor=none;align=left;verticalAlign=top;spacingLeft=4;spacingRight=4;overflow=hidden;rotatable=0;points=[[0,0.5],[1,0.5]];portConstraint=eastwest;whiteSpace=wrap;html=1;" parent="VWIoromdeVteyUXSWohZ-15" vertex="1">
          <mxGeometry y="450" width="660" height="26" as="geometry" />
        </mxCell>
        <mxCell id="XdRAYDsdtGcGILHuMkyT-115" value="+ equipe_visitante(): Equipe" style="text;strokeColor=none;fillColor=none;align=left;verticalAlign=top;spacingLeft=4;spacingRight=4;overflow=hidden;rotatable=0;points=[[0,0.5],[1,0.5]];portConstraint=eastwest;whiteSpace=wrap;html=1;" parent="VWIoromdeVteyUXSWohZ-15" vertex="1">
          <mxGeometry y="476" width="660" height="26" as="geometry" />
        </mxCell>
        <mxCell id="XdRAYDsdtGcGILHuMkyT-116" value="+ equipe_visitante(equipe_visitante: Equipe)" style="text;strokeColor=none;fillColor=none;align=left;verticalAlign=top;spacingLeft=4;spacingRight=4;overflow=hidden;rotatable=0;points=[[0,0.5],[1,0.5]];portConstraint=eastwest;whiteSpace=wrap;html=1;" parent="VWIoromdeVteyUXSWohZ-15" vertex="1">
          <mxGeometry y="502" width="660" height="26" as="geometry" />
        </mxCell>
        <mxCell id="VWIoromdeVteyUXSWohZ-23" value="+ arbitro(): Arbitro" style="text;strokeColor=none;fillColor=none;align=left;verticalAlign=top;spacingLeft=4;spacingRight=4;overflow=hidden;rotatable=0;points=[[0,0.5],[1,0.5]];portConstraint=eastwest;whiteSpace=wrap;html=1;" parent="VWIoromdeVteyUXSWohZ-15" vertex="1">
          <mxGeometry y="528" width="660" height="26" as="geometry" />
        </mxCell>
        <mxCell id="VWIoromdeVteyUXSWohZ-24" value="+ arbitro(arbitro: Arbitro)" style="text;strokeColor=none;fillColor=none;align=left;verticalAlign=top;spacingLeft=4;spacingRight=4;overflow=hidden;rotatable=0;points=[[0,0.5],[1,0.5]];portConstraint=eastwest;whiteSpace=wrap;html=1;" parent="VWIoromdeVteyUXSWohZ-15" vertex="1">
          <mxGeometry y="554" width="660" height="26" as="geometry" />
        </mxCell>
        <mxCell id="VWIoromdeVteyUXSWohZ-25" value="+ gols_equipe_casa(): int" style="text;strokeColor=none;fillColor=none;align=left;verticalAlign=top;spacingLeft=4;spacingRight=4;overflow=hidden;rotatable=0;points=[[0,0.5],[1,0.5]];portConstraint=eastwest;whiteSpace=wrap;html=1;" parent="VWIoromdeVteyUXSWohZ-15" vertex="1">
          <mxGeometry y="580" width="660" height="26" as="geometry" />
        </mxCell>
        <mxCell id="VWIoromdeVteyUXSWohZ-32" value="+ gols_equipe_casa(gols_equipe_casa: int)" style="text;strokeColor=none;fillColor=none;align=left;verticalAlign=top;spacingLeft=4;spacingRight=4;overflow=hidden;rotatable=0;points=[[0,0.5],[1,0.5]];portConstraint=eastwest;whiteSpace=wrap;html=1;" parent="VWIoromdeVteyUXSWohZ-15" vertex="1">
          <mxGeometry y="606" width="660" height="26" as="geometry" />
        </mxCell>
        <mxCell id="z-3jtgrBwZ_cu0U_5YFZ-68" value="+ artilheiros_equipe_casa(): Aluno[ ]" style="text;strokeColor=none;fillColor=none;align=left;verticalAlign=top;spacingLeft=4;spacingRight=4;overflow=hidden;rotatable=0;points=[[0,0.5],[1,0.5]];portConstraint=eastwest;whiteSpace=wrap;html=1;" vertex="1" parent="VWIoromdeVteyUXSWohZ-15">
          <mxGeometry y="632" width="660" height="26" as="geometry" />
        </mxCell>
        <mxCell id="z-3jtgrBwZ_cu0U_5YFZ-69" value="+ artilheiros_equipe_casa(Aluno[ ])" style="text;strokeColor=none;fillColor=none;align=left;verticalAlign=top;spacingLeft=4;spacingRight=4;overflow=hidden;rotatable=0;points=[[0,0.5],[1,0.5]];portConstraint=eastwest;whiteSpace=wrap;html=1;" vertex="1" parent="VWIoromdeVteyUXSWohZ-15">
          <mxGeometry y="658" width="660" height="26" as="geometry" />
        </mxCell>
        <mxCell id="eIAJ73TEnIPq5N8NY3QO-15" value="+ gols_equipe_visitante(): int" style="text;strokeColor=none;fillColor=none;align=left;verticalAlign=top;spacingLeft=4;spacingRight=4;overflow=hidden;rotatable=0;points=[[0,0.5],[1,0.5]];portConstraint=eastwest;whiteSpace=wrap;html=1;" parent="VWIoromdeVteyUXSWohZ-15" vertex="1">
          <mxGeometry y="684" width="660" height="26" as="geometry" />
        </mxCell>
        <mxCell id="eIAJ73TEnIPq5N8NY3QO-16" value="+ gols_equipe_visitante(gols_equipe_visitante: int)" style="text;strokeColor=none;fillColor=none;align=left;verticalAlign=top;spacingLeft=4;spacingRight=4;overflow=hidden;rotatable=0;points=[[0,0.5],[1,0.5]];portConstraint=eastwest;whiteSpace=wrap;html=1;" parent="VWIoromdeVteyUXSWohZ-15" vertex="1">
          <mxGeometry y="710" width="660" height="26" as="geometry" />
        </mxCell>
        <mxCell id="z-3jtgrBwZ_cu0U_5YFZ-70" value="+ artilheiros_equipe_visitante(): Aluno[ ]" style="text;strokeColor=none;fillColor=none;align=left;verticalAlign=top;spacingLeft=4;spacingRight=4;overflow=hidden;rotatable=0;points=[[0,0.5],[1,0.5]];portConstraint=eastwest;whiteSpace=wrap;html=1;" vertex="1" parent="VWIoromdeVteyUXSWohZ-15">
          <mxGeometry y="736" width="660" height="26" as="geometry" />
        </mxCell>
        <mxCell id="z-3jtgrBwZ_cu0U_5YFZ-71" value="+ artilheiros_equipe_visitante(Aluno[ ])" style="text;strokeColor=none;fillColor=none;align=left;verticalAlign=top;spacingLeft=4;spacingRight=4;overflow=hidden;rotatable=0;points=[[0,0.5],[1,0.5]];portConstraint=eastwest;whiteSpace=wrap;html=1;" vertex="1" parent="VWIoromdeVteyUXSWohZ-15">
          <mxGeometry y="762" width="660" height="26" as="geometry" />
        </mxCell>
        <mxCell id="eIAJ73TEnIPq5N8NY3QO-17" value="+ resultado(): str" style="text;strokeColor=none;fillColor=none;align=left;verticalAlign=top;spacingLeft=4;spacingRight=4;overflow=hidden;rotatable=0;points=[[0,0.5],[1,0.5]];portConstraint=eastwest;whiteSpace=wrap;html=1;" parent="VWIoromdeVteyUXSWohZ-15" vertex="1">
          <mxGeometry y="788" width="660" height="26" as="geometry" />
        </mxCell>
        <mxCell id="z-3jtgrBwZ_cu0U_5YFZ-72" value="+ resultado(resultado: str)" style="text;strokeColor=none;fillColor=none;align=left;verticalAlign=top;spacingLeft=4;spacingRight=4;overflow=hidden;rotatable=0;points=[[0,0.5],[1,0.5]];portConstraint=eastwest;whiteSpace=wrap;html=1;" vertex="1" parent="VWIoromdeVteyUXSWohZ-15">
          <mxGeometry y="814" width="660" height="26" as="geometry" />
        </mxCell>
        <mxCell id="ghrtqH5vHBBykUhaQ1Sb-13" value="+ partida_realizada(): bool" style="text;strokeColor=none;fillColor=none;align=left;verticalAlign=top;spacingLeft=4;spacingRight=4;overflow=hidden;rotatable=0;points=[[0,0.5],[1,0.5]];portConstraint=eastwest;whiteSpace=wrap;html=1;" parent="VWIoromdeVteyUXSWohZ-15" vertex="1">
          <mxGeometry y="840" width="660" height="26" as="geometry" />
        </mxCell>
        <mxCell id="ghrtqH5vHBBykUhaQ1Sb-12" value="+ partida_realizada(partida_realizada: bool)" style="text;strokeColor=none;fillColor=none;align=left;verticalAlign=top;spacingLeft=4;spacingRight=4;overflow=hidden;rotatable=0;points=[[0,0.5],[1,0.5]];portConstraint=eastwest;whiteSpace=wrap;html=1;" parent="VWIoromdeVteyUXSWohZ-15" vertex="1">
          <mxGeometry y="866" width="660" height="26" as="geometry" />
        </mxCell>
        <mxCell id="VWIoromdeVteyUXSWohZ-75" value="" style="endArrow=open;endFill=1;endSize=12;html=1;rounded=0;entryX=0.48;entryY=-0.014;entryDx=0;entryDy=0;entryPerimeter=0;" parent="1" target="BRvZdCVV4lEwRIuZLhzR-1" edge="1">
          <mxGeometry width="160" relative="1" as="geometry">
            <mxPoint x="-70" y="360" as="sourcePoint" />
            <mxPoint x="100" y="130" as="targetPoint" />
            <Array as="points" />
          </mxGeometry>
        </mxCell>
        <mxCell id="VWIoromdeVteyUXSWohZ-76" value="- curso" style="text;strokeColor=none;fillColor=none;align=left;verticalAlign=top;spacingLeft=4;spacingRight=4;overflow=hidden;rotatable=0;points=[[0,0.5],[1,0.5]];portConstraint=eastwest;whiteSpace=wrap;html=1;" parent="1" vertex="1">
          <mxGeometry x="-66" y="402" width="50" height="26" as="geometry" />
        </mxCell>
        <mxCell id="VWIoromdeVteyUXSWohZ-77" value="1" style="text;html=1;align=center;verticalAlign=middle;whiteSpace=wrap;rounded=0;" parent="1" vertex="1">
          <mxGeometry x="50" y="457" width="20" height="20" as="geometry" />
        </mxCell>
        <mxCell id="VWIoromdeVteyUXSWohZ-80" value="- curso" style="text;strokeColor=none;fillColor=none;align=left;verticalAlign=top;spacingLeft=4;spacingRight=4;overflow=hidden;rotatable=0;points=[[0,0.5],[1,0.5]];portConstraint=eastwest;whiteSpace=wrap;html=1;" parent="1" vertex="1">
          <mxGeometry x="70" y="520" width="50" height="26" as="geometry" />
        </mxCell>
        <mxCell id="XdRAYDsdtGcGILHuMkyT-2" value="Pessoa" style="swimlane;fontStyle=2;align=center;verticalAlign=top;childLayout=stackLayout;horizontal=1;startSize=26;horizontalStack=0;resizeParent=1;resizeLast=0;collapsible=1;marginBottom=0;rounded=0;shadow=0;strokeWidth=1;" parent="1" vertex="1">
          <mxGeometry x="-790" y="40" width="348" height="300" as="geometry">
            <mxRectangle x="230" y="140" width="160" height="26" as="alternateBounds" />
          </mxGeometry>
        </mxCell>
        <mxCell id="XdRAYDsdtGcGILHuMkyT-4" value="- nome: str" style="text;align=left;verticalAlign=top;spacingLeft=4;spacingRight=4;overflow=hidden;rotatable=0;points=[[0,0.5],[1,0.5]];portConstraint=eastwest;" parent="XdRAYDsdtGcGILHuMkyT-2" vertex="1">
          <mxGeometry y="26" width="348" height="26" as="geometry" />
        </mxCell>
        <mxCell id="XdRAYDsdtGcGILHuMkyT-14" value="- cpf: str" style="text;align=left;verticalAlign=top;spacingLeft=4;spacingRight=4;overflow=hidden;rotatable=0;points=[[0,0.5],[1,0.5]];portConstraint=eastwest;" parent="XdRAYDsdtGcGILHuMkyT-2" vertex="1">
          <mxGeometry y="52" width="348" height="26" as="geometry" />
        </mxCell>
        <mxCell id="XdRAYDsdtGcGILHuMkyT-13" value="- data_nasc: datetime" style="text;align=left;verticalAlign=top;spacingLeft=4;spacingRight=4;overflow=hidden;rotatable=0;points=[[0,0.5],[1,0.5]];portConstraint=eastwest;" parent="XdRAYDsdtGcGILHuMkyT-2" vertex="1">
          <mxGeometry y="78" width="348" height="26" as="geometry" />
        </mxCell>
        <mxCell id="XdRAYDsdtGcGILHuMkyT-6" value="" style="line;html=1;strokeWidth=1;align=left;verticalAlign=middle;spacingTop=-1;spacingLeft=3;spacingRight=3;rotatable=0;labelPosition=right;points=[];portConstraint=eastwest;" parent="XdRAYDsdtGcGILHuMkyT-2" vertex="1">
          <mxGeometry y="104" width="348" height="8" as="geometry" />
        </mxCell>
        <mxCell id="XdRAYDsdtGcGILHuMkyT-7" value="+ &lt;&lt;create&gt;&gt; __init__(nome: str, cpf: str, data_nasc: datetime)" style="text;align=left;verticalAlign=top;spacingLeft=4;spacingRight=4;overflow=hidden;rotatable=0;points=[[0,0.5],[1,0.5]];portConstraint=eastwest;" parent="XdRAYDsdtGcGILHuMkyT-2" vertex="1">
          <mxGeometry y="112" width="348" height="26" as="geometry" />
        </mxCell>
        <mxCell id="XdRAYDsdtGcGILHuMkyT-9" value="+ nome(): str" style="text;align=left;verticalAlign=top;spacingLeft=4;spacingRight=4;overflow=hidden;rotatable=0;points=[[0,0.5],[1,0.5]];portConstraint=eastwest;" parent="XdRAYDsdtGcGILHuMkyT-2" vertex="1">
          <mxGeometry y="138" width="348" height="26" as="geometry" />
        </mxCell>
        <mxCell id="XdRAYDsdtGcGILHuMkyT-10" value="+ nome(nome: str)" style="text;align=left;verticalAlign=top;spacingLeft=4;spacingRight=4;overflow=hidden;rotatable=0;points=[[0,0.5],[1,0.5]];portConstraint=eastwest;" parent="XdRAYDsdtGcGILHuMkyT-2" vertex="1">
          <mxGeometry y="164" width="348" height="26" as="geometry" />
        </mxCell>
        <mxCell id="XdRAYDsdtGcGILHuMkyT-15" value="+ cpf(): str" style="text;align=left;verticalAlign=top;spacingLeft=4;spacingRight=4;overflow=hidden;rotatable=0;points=[[0,0.5],[1,0.5]];portConstraint=eastwest;" parent="XdRAYDsdtGcGILHuMkyT-2" vertex="1">
          <mxGeometry y="190" width="348" height="26" as="geometry" />
        </mxCell>
        <mxCell id="XdRAYDsdtGcGILHuMkyT-16" value="+ cpf(cpf: str)" style="text;align=left;verticalAlign=top;spacingLeft=4;spacingRight=4;overflow=hidden;rotatable=0;points=[[0,0.5],[1,0.5]];portConstraint=eastwest;" parent="XdRAYDsdtGcGILHuMkyT-2" vertex="1">
          <mxGeometry y="216" width="348" height="26" as="geometry" />
        </mxCell>
        <mxCell id="XdRAYDsdtGcGILHuMkyT-11" value="+ data_nasc(): datetime" style="text;align=left;verticalAlign=top;spacingLeft=4;spacingRight=4;overflow=hidden;rotatable=0;points=[[0,0.5],[1,0.5]];portConstraint=eastwest;" parent="XdRAYDsdtGcGILHuMkyT-2" vertex="1">
          <mxGeometry y="242" width="348" height="26" as="geometry" />
        </mxCell>
        <mxCell id="XdRAYDsdtGcGILHuMkyT-12" value="+ data_nasc(data_nasc: datetime)" style="text;align=left;verticalAlign=top;spacingLeft=4;spacingRight=4;overflow=hidden;rotatable=0;points=[[0,0.5],[1,0.5]];portConstraint=eastwest;" parent="XdRAYDsdtGcGILHuMkyT-2" vertex="1">
          <mxGeometry y="268" width="348" height="32" as="geometry" />
        </mxCell>
        <mxCell id="XdRAYDsdtGcGILHuMkyT-17" value="Extends" style="endArrow=block;endSize=16;endFill=0;html=1;rounded=0;exitX=0;exitY=0.25;exitDx=0;exitDy=0;exitPerimeter=0;entryX=0.999;entryY=0.077;entryDx=0;entryDy=0;entryPerimeter=0;" parent="1" source="42rT5aTTlDtqcZQRqHW7-9" target="XdRAYDsdtGcGILHuMkyT-13" edge="1">
          <mxGeometry width="160" relative="1" as="geometry">
            <mxPoint x="-250" y="94" as="sourcePoint" />
            <mxPoint x="-440" y="120" as="targetPoint" />
          </mxGeometry>
        </mxCell>
        <mxCell id="XdRAYDsdtGcGILHuMkyT-18" value="Extends" style="endArrow=block;endSize=16;endFill=0;html=1;rounded=0;entryX=0.485;entryY=1.013;entryDx=0;entryDy=0;entryPerimeter=0;exitX=0.487;exitY=0;exitDx=0;exitDy=0;exitPerimeter=0;" parent="1" source="42rT5aTTlDtqcZQRqHW7-24" target="XdRAYDsdtGcGILHuMkyT-12" edge="1">
          <mxGeometry width="160" relative="1" as="geometry">
            <mxPoint x="-600" y="440" as="sourcePoint" />
            <mxPoint x="-610" y="350" as="targetPoint" />
          </mxGeometry>
        </mxCell>
        <mxCell id="XdRAYDsdtGcGILHuMkyT-38" value="- alunos" style="text;strokeColor=none;fillColor=none;align=left;verticalAlign=top;spacingLeft=4;spacingRight=4;overflow=hidden;rotatable=0;points=[[0,0.5],[1,0.5]];portConstraint=eastwest;whiteSpace=wrap;html=1;" parent="1" vertex="1">
          <mxGeometry x="170" y="116" width="60" height="26" as="geometry" />
        </mxCell>
        <mxCell id="XdRAYDsdtGcGILHuMkyT-40" value="11..*" style="text;html=1;align=center;verticalAlign=middle;whiteSpace=wrap;rounded=0;" parent="1" vertex="1">
          <mxGeometry x="170" y="90" width="20" height="10" as="geometry" />
        </mxCell>
        <mxCell id="XdRAYDsdtGcGILHuMkyT-41" value="1" style="endArrow=open;html=1;endSize=12;startArrow=diamondThin;startSize=14;startFill=0;edgeStyle=orthogonalEdgeStyle;align=left;verticalAlign=bottom;rounded=0;entryX=1.007;entryY=0.288;entryDx=0;entryDy=0;entryPerimeter=0;" parent="1" edge="1">
          <mxGeometry x="-0.82" y="-1" relative="1" as="geometry">
            <mxPoint x="999" y="130" as="sourcePoint" />
            <mxPoint x="721.52" y="129.99799999999982" as="targetPoint" />
            <mxPoint as="offset" />
            <Array as="points">
              <mxPoint x="889" y="130" />
              <mxPoint x="889" y="130" />
            </Array>
          </mxGeometry>
        </mxCell>
        <mxCell id="XdRAYDsdtGcGILHuMkyT-42" value="- equipes" style="text;strokeColor=none;fillColor=none;align=left;verticalAlign=top;spacingLeft=4;spacingRight=4;overflow=hidden;rotatable=0;points=[[0,0.5],[1,0.5]];portConstraint=eastwest;whiteSpace=wrap;html=1;" parent="1" vertex="1">
          <mxGeometry x="740" y="130" width="70" height="26" as="geometry" />
        </mxCell>
        <mxCell id="XdRAYDsdtGcGILHuMkyT-43" value="2..*" style="text;html=1;align=center;verticalAlign=middle;whiteSpace=wrap;rounded=0;" parent="1" vertex="1">
          <mxGeometry x="740" y="116" width="20" height="10" as="geometry" />
        </mxCell>
        <mxCell id="XdRAYDsdtGcGILHuMkyT-45" value="- partidas" style="text;strokeColor=none;fillColor=none;align=left;verticalAlign=top;spacingLeft=4;spacingRight=4;overflow=hidden;rotatable=0;points=[[0,0.5],[1,0.5]];portConstraint=eastwest;whiteSpace=wrap;html=1;" parent="1" vertex="1">
          <mxGeometry x="1171" y="548" width="69" height="26" as="geometry" />
        </mxCell>
        <mxCell id="XdRAYDsdtGcGILHuMkyT-46" value="0..*" style="text;html=1;align=center;verticalAlign=middle;whiteSpace=wrap;rounded=0;" parent="1" vertex="1">
          <mxGeometry x="1130" y="556" width="20" height="10" as="geometry" />
        </mxCell>
        <mxCell id="XdRAYDsdtGcGILHuMkyT-86" value="" style="endArrow=open;endFill=1;endSize=12;html=1;rounded=0;exitX=-0.003;exitY=0.23;exitDx=0;exitDy=0;exitPerimeter=0;" parent="1" source="XdRAYDsdtGcGILHuMkyT-113" edge="1">
          <mxGeometry width="160" relative="1" as="geometry">
            <mxPoint x="740" y="670" as="sourcePoint" />
            <mxPoint x="-400" y="474" as="targetPoint" />
            <Array as="points">
              <mxPoint x="730" y="694" />
              <mxPoint x="645.99" y="694.23" />
              <mxPoint x="-320" y="694" />
              <mxPoint x="-320" y="474" />
            </Array>
          </mxGeometry>
        </mxCell>
        <mxCell id="XdRAYDsdtGcGILHuMkyT-87" value="- arbitro" style="text;strokeColor=none;fillColor=none;align=left;verticalAlign=top;spacingLeft=4;spacingRight=4;overflow=hidden;rotatable=0;points=[[0,0.5],[1,0.5]];portConstraint=eastwest;whiteSpace=wrap;html=1;" parent="1" vertex="1">
          <mxGeometry x="-390" y="474" width="60" height="26" as="geometry" />
        </mxCell>
        <mxCell id="XdRAYDsdtGcGILHuMkyT-88" value="1" style="text;html=1;align=center;verticalAlign=middle;whiteSpace=wrap;rounded=0;" parent="1" vertex="1">
          <mxGeometry x="-390" y="450" width="20" height="20" as="geometry" />
        </mxCell>
        <mxCell id="whfUZhFvRBQpakOQNN74-1" value="ControladorArbitros" style="swimlane;fontStyle=1;align=center;verticalAlign=top;childLayout=stackLayout;horizontal=1;startSize=26;horizontalStack=0;resizeParent=1;resizeParentMax=0;resizeLast=0;collapsible=1;marginBottom=0;whiteSpace=wrap;html=1;" parent="1" vertex="1">
          <mxGeometry x="-810" y="800" width="367" height="320" as="geometry" />
        </mxCell>
        <mxCell id="whfUZhFvRBQpakOQNN74-6" value="" style="line;strokeWidth=1;fillColor=none;align=left;verticalAlign=middle;spacingTop=-1;spacingLeft=3;spacingRight=3;rotatable=0;labelPosition=right;points=[];portConstraint=eastwest;strokeColor=inherit;" parent="whfUZhFvRBQpakOQNN74-1" vertex="1">
          <mxGeometry y="26" width="367" height="8" as="geometry" />
        </mxCell>
        <mxCell id="whfUZhFvRBQpakOQNN74-7" value="+ &amp;lt;&amp;lt;create&amp;gt;&amp;gt; __init__(constrolador_sistema: ControladorSistema)" style="text;strokeColor=none;fillColor=none;align=left;verticalAlign=top;spacingLeft=4;spacingRight=4;overflow=hidden;rotatable=0;points=[[0,0.5],[1,0.5]];portConstraint=eastwest;whiteSpace=wrap;html=1;" parent="whfUZhFvRBQpakOQNN74-1" vertex="1">
          <mxGeometry y="34" width="367" height="26" as="geometry" />
        </mxCell>
        <mxCell id="z-3jtgrBwZ_cu0U_5YFZ-4" value="+ arbitros(): Arbitro[ ]" style="text;strokeColor=none;fillColor=none;align=left;verticalAlign=top;spacingLeft=4;spacingRight=4;overflow=hidden;rotatable=0;points=[[0,0.5],[1,0.5]];portConstraint=eastwest;whiteSpace=wrap;html=1;" vertex="1" parent="whfUZhFvRBQpakOQNN74-1">
          <mxGeometry y="60" width="367" height="26" as="geometry" />
        </mxCell>
        <mxCell id="z-3jtgrBwZ_cu0U_5YFZ-5" value="+ tela_arbitro(): TelaArbitro" style="text;strokeColor=none;fillColor=none;align=left;verticalAlign=top;spacingLeft=4;spacingRight=4;overflow=hidden;rotatable=0;points=[[0,0.5],[1,0.5]];portConstraint=eastwest;whiteSpace=wrap;html=1;" vertex="1" parent="whfUZhFvRBQpakOQNN74-1">
          <mxGeometry y="86" width="367" height="26" as="geometry" />
        </mxCell>
        <mxCell id="z-3jtgrBwZ_cu0U_5YFZ-6" value="+ controlador_sistema(): ControladorSistema" style="text;strokeColor=none;fillColor=none;align=left;verticalAlign=top;spacingLeft=4;spacingRight=4;overflow=hidden;rotatable=0;points=[[0,0.5],[1,0.5]];portConstraint=eastwest;whiteSpace=wrap;html=1;" vertex="1" parent="whfUZhFvRBQpakOQNN74-1">
          <mxGeometry y="112" width="367" height="26" as="geometry" />
        </mxCell>
        <mxCell id="ilpft1NIrWu3d606YRAC-24" value="+ lista_arbitros()" style="text;strokeColor=none;fillColor=none;align=left;verticalAlign=top;spacingLeft=4;spacingRight=4;overflow=hidden;rotatable=0;points=[[0,0.5],[1,0.5]];portConstraint=eastwest;whiteSpace=wrap;html=1;" parent="whfUZhFvRBQpakOQNN74-1" vertex="1">
          <mxGeometry y="138" width="367" height="26" as="geometry" />
        </mxCell>
        <mxCell id="whfUZhFvRBQpakOQNN74-13" value="+ inclui_arbitro()" style="text;strokeColor=none;fillColor=none;align=left;verticalAlign=top;spacingLeft=4;spacingRight=4;overflow=hidden;rotatable=0;points=[[0,0.5],[1,0.5]];portConstraint=eastwest;whiteSpace=wrap;html=1;" parent="whfUZhFvRBQpakOQNN74-1" vertex="1">
          <mxGeometry y="164" width="367" height="26" as="geometry" />
        </mxCell>
        <mxCell id="whfUZhFvRBQpakOQNN74-17" value="+ altera_arbitro()" style="text;strokeColor=none;fillColor=none;align=left;verticalAlign=top;spacingLeft=4;spacingRight=4;overflow=hidden;rotatable=0;points=[[0,0.5],[1,0.5]];portConstraint=eastwest;whiteSpace=wrap;html=1;" parent="whfUZhFvRBQpakOQNN74-1" vertex="1">
          <mxGeometry y="190" width="367" height="26" as="geometry" />
        </mxCell>
        <mxCell id="whfUZhFvRBQpakOQNN74-14" value="+ exclui&lt;span style=&quot;background-color: initial;&quot;&gt;_arbitro()&lt;/span&gt;" style="text;strokeColor=none;fillColor=none;align=left;verticalAlign=top;spacingLeft=4;spacingRight=4;overflow=hidden;rotatable=0;points=[[0,0.5],[1,0.5]];portConstraint=eastwest;whiteSpace=wrap;html=1;" parent="whfUZhFvRBQpakOQNN74-1" vertex="1">
          <mxGeometry y="216" width="367" height="26" as="geometry" />
        </mxCell>
        <mxCell id="whfUZhFvRBQpakOQNN74-16" value="+ pega_arbitro_por_cpf(cpf: str)" style="text;strokeColor=none;fillColor=none;align=left;verticalAlign=top;spacingLeft=4;spacingRight=4;overflow=hidden;rotatable=0;points=[[0,0.5],[1,0.5]];portConstraint=eastwest;whiteSpace=wrap;html=1;" parent="whfUZhFvRBQpakOQNN74-1" vertex="1">
          <mxGeometry y="242" width="367" height="26" as="geometry" />
        </mxCell>
        <mxCell id="z-3jtgrBwZ_cu0U_5YFZ-7" value="+ retorna()" style="text;strokeColor=none;fillColor=none;align=left;verticalAlign=top;spacingLeft=4;spacingRight=4;overflow=hidden;rotatable=0;points=[[0,0.5],[1,0.5]];portConstraint=eastwest;whiteSpace=wrap;html=1;" vertex="1" parent="whfUZhFvRBQpakOQNN74-1">
          <mxGeometry y="268" width="367" height="26" as="geometry" />
        </mxCell>
        <mxCell id="whfUZhFvRBQpakOQNN74-19" value="+ abre_tela()" style="text;strokeColor=none;fillColor=none;align=left;verticalAlign=top;spacingLeft=4;spacingRight=4;overflow=hidden;rotatable=0;points=[[0,0.5],[1,0.5]];portConstraint=eastwest;whiteSpace=wrap;html=1;" parent="whfUZhFvRBQpakOQNN74-1" vertex="1">
          <mxGeometry y="294" width="367" height="26" as="geometry" />
        </mxCell>
        <mxCell id="whfUZhFvRBQpakOQNN74-21" value="TelaArbitro" style="swimlane;fontStyle=1;align=center;verticalAlign=top;childLayout=stackLayout;horizontal=1;startSize=26;horizontalStack=0;resizeParent=1;resizeParentMax=0;resizeLast=0;collapsible=1;marginBottom=0;whiteSpace=wrap;html=1;" parent="1" vertex="1">
          <mxGeometry x="-520" y="1160" width="360" height="190" as="geometry" />
        </mxCell>
        <mxCell id="whfUZhFvRBQpakOQNN74-22" value="" style="line;strokeWidth=1;fillColor=none;align=left;verticalAlign=middle;spacingTop=-1;spacingLeft=3;spacingRight=3;rotatable=0;labelPosition=right;points=[];portConstraint=eastwest;strokeColor=inherit;" parent="whfUZhFvRBQpakOQNN74-21" vertex="1">
          <mxGeometry y="26" width="360" height="8" as="geometry" />
        </mxCell>
        <mxCell id="whfUZhFvRBQpakOQNN74-23" value="+ &amp;lt;&amp;lt;create&amp;gt;&amp;gt; __init__(controlador_arbitros: ControladorArbitros)&lt;div&gt;&lt;br&gt;&lt;/div&gt;" style="text;strokeColor=none;fillColor=none;align=left;verticalAlign=top;spacingLeft=4;spacingRight=4;overflow=hidden;rotatable=0;points=[[0,0.5],[1,0.5]];portConstraint=eastwest;whiteSpace=wrap;html=1;" parent="whfUZhFvRBQpakOQNN74-21" vertex="1">
          <mxGeometry y="34" width="360" height="26" as="geometry" />
        </mxCell>
        <mxCell id="whfUZhFvRBQpakOQNN74-24" value="+ tela_opcoes()" style="text;strokeColor=none;fillColor=none;align=left;verticalAlign=top;spacingLeft=4;spacingRight=4;overflow=hidden;rotatable=0;points=[[0,0.5],[1,0.5]];portConstraint=eastwest;whiteSpace=wrap;html=1;" parent="whfUZhFvRBQpakOQNN74-21" vertex="1">
          <mxGeometry y="60" width="360" height="26" as="geometry" />
        </mxCell>
        <mxCell id="whfUZhFvRBQpakOQNN74-25" value="+ pega_dados_arbitro()" style="text;strokeColor=none;fillColor=none;align=left;verticalAlign=top;spacingLeft=4;spacingRight=4;overflow=hidden;rotatable=0;points=[[0,0.5],[1,0.5]];portConstraint=eastwest;whiteSpace=wrap;html=1;" parent="whfUZhFvRBQpakOQNN74-21" vertex="1">
          <mxGeometry y="86" width="360" height="26" as="geometry" />
        </mxCell>
        <mxCell id="whfUZhFvRBQpakOQNN74-26" value="+ mostra_arbitro(dados_arbitro)" style="text;strokeColor=none;fillColor=none;align=left;verticalAlign=top;spacingLeft=4;spacingRight=4;overflow=hidden;rotatable=0;points=[[0,0.5],[1,0.5]];portConstraint=eastwest;whiteSpace=wrap;html=1;" parent="whfUZhFvRBQpakOQNN74-21" vertex="1">
          <mxGeometry y="112" width="360" height="26" as="geometry" />
        </mxCell>
        <mxCell id="whfUZhFvRBQpakOQNN74-27" value="+ seleciona_arbitro" style="text;strokeColor=none;fillColor=none;align=left;verticalAlign=top;spacingLeft=4;spacingRight=4;overflow=hidden;rotatable=0;points=[[0,0.5],[1,0.5]];portConstraint=eastwest;whiteSpace=wrap;html=1;" parent="whfUZhFvRBQpakOQNN74-21" vertex="1">
          <mxGeometry y="138" width="360" height="26" as="geometry" />
        </mxCell>
        <mxCell id="whfUZhFvRBQpakOQNN74-28" value="+ mostra_mensagem(msg)" style="text;strokeColor=none;fillColor=none;align=left;verticalAlign=top;spacingLeft=4;spacingRight=4;overflow=hidden;rotatable=0;points=[[0,0.5],[1,0.5]];portConstraint=eastwest;whiteSpace=wrap;html=1;" parent="whfUZhFvRBQpakOQNN74-21" vertex="1">
          <mxGeometry y="164" width="360" height="26" as="geometry" />
        </mxCell>
        <mxCell id="whfUZhFvRBQpakOQNN74-31" value="TelaAluno" style="swimlane;fontStyle=1;align=center;verticalAlign=top;childLayout=stackLayout;horizontal=1;startSize=26;horizontalStack=0;resizeParent=1;resizeParentMax=0;resizeLast=0;collapsible=1;marginBottom=0;whiteSpace=wrap;html=1;" parent="1" vertex="1">
          <mxGeometry y="-679" width="350" height="190" as="geometry" />
        </mxCell>
        <mxCell id="whfUZhFvRBQpakOQNN74-32" value="" style="line;strokeWidth=1;fillColor=none;align=left;verticalAlign=middle;spacingTop=-1;spacingLeft=3;spacingRight=3;rotatable=0;labelPosition=right;points=[];portConstraint=eastwest;strokeColor=inherit;" parent="whfUZhFvRBQpakOQNN74-31" vertex="1">
          <mxGeometry y="26" width="350" height="8" as="geometry" />
        </mxCell>
        <mxCell id="whfUZhFvRBQpakOQNN74-33" value="+ &amp;lt;&amp;lt;create&amp;gt;&amp;gt; __init__(controlador_alunos: ControladorAlunos)" style="text;strokeColor=none;fillColor=none;align=left;verticalAlign=top;spacingLeft=4;spacingRight=4;overflow=hidden;rotatable=0;points=[[0,0.5],[1,0.5]];portConstraint=eastwest;whiteSpace=wrap;html=1;" parent="whfUZhFvRBQpakOQNN74-31" vertex="1">
          <mxGeometry y="34" width="350" height="26" as="geometry" />
        </mxCell>
        <mxCell id="whfUZhFvRBQpakOQNN74-34" value="+ tela_opcoes()" style="text;strokeColor=none;fillColor=none;align=left;verticalAlign=top;spacingLeft=4;spacingRight=4;overflow=hidden;rotatable=0;points=[[0,0.5],[1,0.5]];portConstraint=eastwest;whiteSpace=wrap;html=1;" parent="whfUZhFvRBQpakOQNN74-31" vertex="1">
          <mxGeometry y="60" width="350" height="26" as="geometry" />
        </mxCell>
        <mxCell id="whfUZhFvRBQpakOQNN74-35" value="+ pega_dados_aluno()" style="text;strokeColor=none;fillColor=none;align=left;verticalAlign=top;spacingLeft=4;spacingRight=4;overflow=hidden;rotatable=0;points=[[0,0.5],[1,0.5]];portConstraint=eastwest;whiteSpace=wrap;html=1;" parent="whfUZhFvRBQpakOQNN74-31" vertex="1">
          <mxGeometry y="86" width="350" height="26" as="geometry" />
        </mxCell>
        <mxCell id="whfUZhFvRBQpakOQNN74-36" value="+ mostra_aluno(dados_aluno)" style="text;strokeColor=none;fillColor=none;align=left;verticalAlign=top;spacingLeft=4;spacingRight=4;overflow=hidden;rotatable=0;points=[[0,0.5],[1,0.5]];portConstraint=eastwest;whiteSpace=wrap;html=1;" parent="whfUZhFvRBQpakOQNN74-31" vertex="1">
          <mxGeometry y="112" width="350" height="26" as="geometry" />
        </mxCell>
        <mxCell id="whfUZhFvRBQpakOQNN74-37" value="+ seleciona_aluno" style="text;strokeColor=none;fillColor=none;align=left;verticalAlign=top;spacingLeft=4;spacingRight=4;overflow=hidden;rotatable=0;points=[[0,0.5],[1,0.5]];portConstraint=eastwest;whiteSpace=wrap;html=1;" parent="whfUZhFvRBQpakOQNN74-31" vertex="1">
          <mxGeometry y="138" width="350" height="26" as="geometry" />
        </mxCell>
        <mxCell id="whfUZhFvRBQpakOQNN74-38" value="+ mostra_mensagem(msg)" style="text;strokeColor=none;fillColor=none;align=left;verticalAlign=top;spacingLeft=4;spacingRight=4;overflow=hidden;rotatable=0;points=[[0,0.5],[1,0.5]];portConstraint=eastwest;whiteSpace=wrap;html=1;" parent="whfUZhFvRBQpakOQNN74-31" vertex="1">
          <mxGeometry y="164" width="350" height="26" as="geometry" />
        </mxCell>
        <mxCell id="whfUZhFvRBQpakOQNN74-39" value="ControladorAlunos" style="swimlane;fontStyle=1;align=center;verticalAlign=top;childLayout=stackLayout;horizontal=1;startSize=26;horizontalStack=0;resizeParent=1;resizeParentMax=0;resizeLast=0;collapsible=1;marginBottom=0;whiteSpace=wrap;html=1;" parent="1" vertex="1">
          <mxGeometry x="-200" y="-400" width="360" height="372" as="geometry" />
        </mxCell>
        <mxCell id="whfUZhFvRBQpakOQNN74-40" value="" style="line;strokeWidth=1;fillColor=none;align=left;verticalAlign=middle;spacingTop=-1;spacingLeft=3;spacingRight=3;rotatable=0;labelPosition=right;points=[];portConstraint=eastwest;strokeColor=inherit;" parent="whfUZhFvRBQpakOQNN74-39" vertex="1">
          <mxGeometry y="26" width="360" height="8" as="geometry" />
        </mxCell>
        <mxCell id="whfUZhFvRBQpakOQNN74-41" value="+ &amp;lt;&amp;lt;create&amp;gt;&amp;gt; __init__(controlador_sistema: ControladorSistema)" style="text;strokeColor=none;fillColor=none;align=left;verticalAlign=top;spacingLeft=4;spacingRight=4;overflow=hidden;rotatable=0;points=[[0,0.5],[1,0.5]];portConstraint=eastwest;whiteSpace=wrap;html=1;" parent="whfUZhFvRBQpakOQNN74-39" vertex="1">
          <mxGeometry y="34" width="360" height="26" as="geometry" />
        </mxCell>
        <mxCell id="z-3jtgrBwZ_cu0U_5YFZ-10" value="+ alunos(): Aluno[ ]" style="text;strokeColor=none;fillColor=none;align=left;verticalAlign=top;spacingLeft=4;spacingRight=4;overflow=hidden;rotatable=0;points=[[0,0.5],[1,0.5]];portConstraint=eastwest;whiteSpace=wrap;html=1;" vertex="1" parent="whfUZhFvRBQpakOQNN74-39">
          <mxGeometry y="60" width="360" height="26" as="geometry" />
        </mxCell>
        <mxCell id="z-3jtgrBwZ_cu0U_5YFZ-11" value="+ tela_aluno(): TelaAluno" style="text;strokeColor=none;fillColor=none;align=left;verticalAlign=top;spacingLeft=4;spacingRight=4;overflow=hidden;rotatable=0;points=[[0,0.5],[1,0.5]];portConstraint=eastwest;whiteSpace=wrap;html=1;" vertex="1" parent="whfUZhFvRBQpakOQNN74-39">
          <mxGeometry y="86" width="360" height="26" as="geometry" />
        </mxCell>
        <mxCell id="z-3jtgrBwZ_cu0U_5YFZ-12" value="+ controlador_sistema(): ControladorSistema" style="text;strokeColor=none;fillColor=none;align=left;verticalAlign=top;spacingLeft=4;spacingRight=4;overflow=hidden;rotatable=0;points=[[0,0.5],[1,0.5]];portConstraint=eastwest;whiteSpace=wrap;html=1;" vertex="1" parent="whfUZhFvRBQpakOQNN74-39">
          <mxGeometry y="112" width="360" height="26" as="geometry" />
        </mxCell>
        <mxCell id="M5kbGhWNzv6cmUeK2LbQ-8" value="+ lista_alunos()" style="text;strokeColor=none;fillColor=none;align=left;verticalAlign=top;spacingLeft=4;spacingRight=4;overflow=hidden;rotatable=0;points=[[0,0.5],[1,0.5]];portConstraint=eastwest;whiteSpace=wrap;html=1;" parent="whfUZhFvRBQpakOQNN74-39" vertex="1">
          <mxGeometry y="138" width="360" height="26" as="geometry" />
        </mxCell>
        <mxCell id="whfUZhFvRBQpakOQNN74-42" value="+ inclui_aluno()" style="text;strokeColor=none;fillColor=none;align=left;verticalAlign=top;spacingLeft=4;spacingRight=4;overflow=hidden;rotatable=0;points=[[0,0.5],[1,0.5]];portConstraint=eastwest;whiteSpace=wrap;html=1;" parent="whfUZhFvRBQpakOQNN74-39" vertex="1">
          <mxGeometry y="164" width="360" height="26" as="geometry" />
        </mxCell>
        <mxCell id="whfUZhFvRBQpakOQNN74-45" value="+ altera_aluno()" style="text;strokeColor=none;fillColor=none;align=left;verticalAlign=top;spacingLeft=4;spacingRight=4;overflow=hidden;rotatable=0;points=[[0,0.5],[1,0.5]];portConstraint=eastwest;whiteSpace=wrap;html=1;" parent="whfUZhFvRBQpakOQNN74-39" vertex="1">
          <mxGeometry y="190" width="360" height="26" as="geometry" />
        </mxCell>
        <mxCell id="whfUZhFvRBQpakOQNN74-43" value="+ exclui_aluno()" style="text;strokeColor=none;fillColor=none;align=left;verticalAlign=top;spacingLeft=4;spacingRight=4;overflow=hidden;rotatable=0;points=[[0,0.5],[1,0.5]];portConstraint=eastwest;whiteSpace=wrap;html=1;" parent="whfUZhFvRBQpakOQNN74-39" vertex="1">
          <mxGeometry y="216" width="360" height="26" as="geometry" />
        </mxCell>
        <mxCell id="whfUZhFvRBQpakOQNN74-44" value="+ pega_aluno_por_matricula(matricula: int)" style="text;strokeColor=none;fillColor=none;align=left;verticalAlign=top;spacingLeft=4;spacingRight=4;overflow=hidden;rotatable=0;points=[[0,0.5],[1,0.5]];portConstraint=eastwest;whiteSpace=wrap;html=1;" parent="whfUZhFvRBQpakOQNN74-39" vertex="1">
          <mxGeometry y="242" width="360" height="26" as="geometry" />
        </mxCell>
        <mxCell id="z-3jtgrBwZ_cu0U_5YFZ-13" value="+ adiciona_gol(matricula: int)" style="text;strokeColor=none;fillColor=none;align=left;verticalAlign=top;spacingLeft=4;spacingRight=4;overflow=hidden;rotatable=0;points=[[0,0.5],[1,0.5]];portConstraint=eastwest;whiteSpace=wrap;html=1;" vertex="1" parent="whfUZhFvRBQpakOQNN74-39">
          <mxGeometry y="268" width="360" height="26" as="geometry" />
        </mxCell>
        <mxCell id="z-3jtgrBwZ_cu0U_5YFZ-14" value="+ remove_gol(matricula: int)" style="text;strokeColor=none;fillColor=none;align=left;verticalAlign=top;spacingLeft=4;spacingRight=4;overflow=hidden;rotatable=0;points=[[0,0.5],[1,0.5]];portConstraint=eastwest;whiteSpace=wrap;html=1;" vertex="1" parent="whfUZhFvRBQpakOQNN74-39">
          <mxGeometry y="294" width="360" height="26" as="geometry" />
        </mxCell>
        <mxCell id="z-3jtgrBwZ_cu0U_5YFZ-15" value="+ retorna()" style="text;strokeColor=none;fillColor=none;align=left;verticalAlign=top;spacingLeft=4;spacingRight=4;overflow=hidden;rotatable=0;points=[[0,0.5],[1,0.5]];portConstraint=eastwest;whiteSpace=wrap;html=1;" vertex="1" parent="whfUZhFvRBQpakOQNN74-39">
          <mxGeometry y="320" width="360" height="26" as="geometry" />
        </mxCell>
        <mxCell id="whfUZhFvRBQpakOQNN74-47" value="+ abre_tela()" style="text;strokeColor=none;fillColor=none;align=left;verticalAlign=top;spacingLeft=4;spacingRight=4;overflow=hidden;rotatable=0;points=[[0,0.5],[1,0.5]];portConstraint=eastwest;whiteSpace=wrap;html=1;" parent="whfUZhFvRBQpakOQNN74-39" vertex="1">
          <mxGeometry y="346" width="360" height="26" as="geometry" />
        </mxCell>
        <mxCell id="OSObfnmbwBIl3ngkpUWz-18" value="ControladorCursos" style="swimlane;fontStyle=1;align=center;verticalAlign=top;childLayout=stackLayout;horizontal=1;startSize=26;horizontalStack=0;resizeParent=1;resizeParentMax=0;resizeLast=0;collapsible=1;marginBottom=0;whiteSpace=wrap;html=1;" parent="1" vertex="1">
          <mxGeometry x="-190" y="800" width="360" height="320" as="geometry" />
        </mxCell>
        <mxCell id="OSObfnmbwBIl3ngkpUWz-19" value="" style="line;strokeWidth=1;fillColor=none;align=left;verticalAlign=middle;spacingTop=-1;spacingLeft=3;spacingRight=3;rotatable=0;labelPosition=right;points=[];portConstraint=eastwest;strokeColor=inherit;" parent="OSObfnmbwBIl3ngkpUWz-18" vertex="1">
          <mxGeometry y="26" width="360" height="8" as="geometry" />
        </mxCell>
        <mxCell id="OSObfnmbwBIl3ngkpUWz-20" value="+ &amp;lt;&amp;lt;create&amp;gt;&amp;gt; __init__(controlador_sistema: ControladorSistema)" style="text;strokeColor=none;fillColor=none;align=left;verticalAlign=top;spacingLeft=4;spacingRight=4;overflow=hidden;rotatable=0;points=[[0,0.5],[1,0.5]];portConstraint=eastwest;whiteSpace=wrap;html=1;" parent="OSObfnmbwBIl3ngkpUWz-18" vertex="1">
          <mxGeometry y="34" width="360" height="26" as="geometry" />
        </mxCell>
        <mxCell id="z-3jtgrBwZ_cu0U_5YFZ-18" value="+ cursos(): Curso[ ]" style="text;strokeColor=none;fillColor=none;align=left;verticalAlign=top;spacingLeft=4;spacingRight=4;overflow=hidden;rotatable=0;points=[[0,0.5],[1,0.5]];portConstraint=eastwest;whiteSpace=wrap;html=1;" vertex="1" parent="OSObfnmbwBIl3ngkpUWz-18">
          <mxGeometry y="60" width="360" height="26" as="geometry" />
        </mxCell>
        <mxCell id="z-3jtgrBwZ_cu0U_5YFZ-19" value="+ tela_curso(): TelaCurso" style="text;strokeColor=none;fillColor=none;align=left;verticalAlign=top;spacingLeft=4;spacingRight=4;overflow=hidden;rotatable=0;points=[[0,0.5],[1,0.5]];portConstraint=eastwest;whiteSpace=wrap;html=1;" vertex="1" parent="OSObfnmbwBIl3ngkpUWz-18">
          <mxGeometry y="86" width="360" height="26" as="geometry" />
        </mxCell>
        <mxCell id="z-3jtgrBwZ_cu0U_5YFZ-20" value="+ controlador_sistema(): ControladorSistema" style="text;strokeColor=none;fillColor=none;align=left;verticalAlign=top;spacingLeft=4;spacingRight=4;overflow=hidden;rotatable=0;points=[[0,0.5],[1,0.5]];portConstraint=eastwest;whiteSpace=wrap;html=1;" vertex="1" parent="OSObfnmbwBIl3ngkpUWz-18">
          <mxGeometry y="112" width="360" height="26" as="geometry" />
        </mxCell>
        <mxCell id="M5kbGhWNzv6cmUeK2LbQ-10" value="+ lista_cursos()" style="text;strokeColor=none;fillColor=none;align=left;verticalAlign=top;spacingLeft=4;spacingRight=4;overflow=hidden;rotatable=0;points=[[0,0.5],[1,0.5]];portConstraint=eastwest;whiteSpace=wrap;html=1;" parent="OSObfnmbwBIl3ngkpUWz-18" vertex="1">
          <mxGeometry y="138" width="360" height="26" as="geometry" />
        </mxCell>
        <mxCell id="OSObfnmbwBIl3ngkpUWz-21" value="+ inclui_curso()" style="text;strokeColor=none;fillColor=none;align=left;verticalAlign=top;spacingLeft=4;spacingRight=4;overflow=hidden;rotatable=0;points=[[0,0.5],[1,0.5]];portConstraint=eastwest;whiteSpace=wrap;html=1;" parent="OSObfnmbwBIl3ngkpUWz-18" vertex="1">
          <mxGeometry y="164" width="360" height="26" as="geometry" />
        </mxCell>
        <mxCell id="z-3jtgrBwZ_cu0U_5YFZ-21" value="+ altera_curso()" style="text;strokeColor=none;fillColor=none;align=left;verticalAlign=top;spacingLeft=4;spacingRight=4;overflow=hidden;rotatable=0;points=[[0,0.5],[1,0.5]];portConstraint=eastwest;whiteSpace=wrap;html=1;" vertex="1" parent="OSObfnmbwBIl3ngkpUWz-18">
          <mxGeometry y="190" width="360" height="26" as="geometry" />
        </mxCell>
        <mxCell id="OSObfnmbwBIl3ngkpUWz-22" value="+ exclui_curso()" style="text;strokeColor=none;fillColor=none;align=left;verticalAlign=top;spacingLeft=4;spacingRight=4;overflow=hidden;rotatable=0;points=[[0,0.5],[1,0.5]];portConstraint=eastwest;whiteSpace=wrap;html=1;" parent="OSObfnmbwBIl3ngkpUWz-18" vertex="1">
          <mxGeometry y="216" width="360" height="26" as="geometry" />
        </mxCell>
        <mxCell id="OSObfnmbwBIl3ngkpUWz-23" value="+ pega_curso_por_codigo(codigo: int)" style="text;strokeColor=none;fillColor=none;align=left;verticalAlign=top;spacingLeft=4;spacingRight=4;overflow=hidden;rotatable=0;points=[[0,0.5],[1,0.5]];portConstraint=eastwest;whiteSpace=wrap;html=1;" parent="OSObfnmbwBIl3ngkpUWz-18" vertex="1">
          <mxGeometry y="242" width="360" height="26" as="geometry" />
        </mxCell>
        <mxCell id="z-3jtgrBwZ_cu0U_5YFZ-22" value="+ retorna()" style="text;strokeColor=none;fillColor=none;align=left;verticalAlign=top;spacingLeft=4;spacingRight=4;overflow=hidden;rotatable=0;points=[[0,0.5],[1,0.5]];portConstraint=eastwest;whiteSpace=wrap;html=1;" vertex="1" parent="OSObfnmbwBIl3ngkpUWz-18">
          <mxGeometry y="268" width="360" height="26" as="geometry" />
        </mxCell>
        <mxCell id="OSObfnmbwBIl3ngkpUWz-26" value="+ abre_tela()" style="text;strokeColor=none;fillColor=none;align=left;verticalAlign=top;spacingLeft=4;spacingRight=4;overflow=hidden;rotatable=0;points=[[0,0.5],[1,0.5]];portConstraint=eastwest;whiteSpace=wrap;html=1;" parent="OSObfnmbwBIl3ngkpUWz-18" vertex="1">
          <mxGeometry y="294" width="360" height="26" as="geometry" />
        </mxCell>
        <mxCell id="OSObfnmbwBIl3ngkpUWz-27" value="TelaCurso" style="swimlane;fontStyle=1;align=center;verticalAlign=top;childLayout=stackLayout;horizontal=1;startSize=26;horizontalStack=0;resizeParent=1;resizeParentMax=0;resizeLast=0;collapsible=1;marginBottom=0;whiteSpace=wrap;html=1;" parent="1" vertex="1">
          <mxGeometry x="60" y="1160" width="350" height="190" as="geometry" />
        </mxCell>
        <mxCell id="OSObfnmbwBIl3ngkpUWz-28" value="" style="line;strokeWidth=1;fillColor=none;align=left;verticalAlign=middle;spacingTop=-1;spacingLeft=3;spacingRight=3;rotatable=0;labelPosition=right;points=[];portConstraint=eastwest;strokeColor=inherit;" parent="OSObfnmbwBIl3ngkpUWz-27" vertex="1">
          <mxGeometry y="26" width="350" height="8" as="geometry" />
        </mxCell>
        <mxCell id="OSObfnmbwBIl3ngkpUWz-29" value="+ &amp;lt;&amp;lt;create&amp;gt;&amp;gt; __init__(controlador_cursos: ControladorCursos)&lt;div&gt;&lt;br&gt;&lt;/div&gt;" style="text;strokeColor=none;fillColor=none;align=left;verticalAlign=top;spacingLeft=4;spacingRight=4;overflow=hidden;rotatable=0;points=[[0,0.5],[1,0.5]];portConstraint=eastwest;whiteSpace=wrap;html=1;" parent="OSObfnmbwBIl3ngkpUWz-27" vertex="1">
          <mxGeometry y="34" width="350" height="26" as="geometry" />
        </mxCell>
        <mxCell id="OSObfnmbwBIl3ngkpUWz-30" value="+ tela_opcoes()" style="text;strokeColor=none;fillColor=none;align=left;verticalAlign=top;spacingLeft=4;spacingRight=4;overflow=hidden;rotatable=0;points=[[0,0.5],[1,0.5]];portConstraint=eastwest;whiteSpace=wrap;html=1;" parent="OSObfnmbwBIl3ngkpUWz-27" vertex="1">
          <mxGeometry y="60" width="350" height="26" as="geometry" />
        </mxCell>
        <mxCell id="OSObfnmbwBIl3ngkpUWz-31" value="+ pega_dados_curso(editando: bool)" style="text;strokeColor=none;fillColor=none;align=left;verticalAlign=top;spacingLeft=4;spacingRight=4;overflow=hidden;rotatable=0;points=[[0,0.5],[1,0.5]];portConstraint=eastwest;whiteSpace=wrap;html=1;" parent="OSObfnmbwBIl3ngkpUWz-27" vertex="1">
          <mxGeometry y="86" width="350" height="26" as="geometry" />
        </mxCell>
        <mxCell id="OSObfnmbwBIl3ngkpUWz-32" value="+ mostra_curso(dados_curso)" style="text;strokeColor=none;fillColor=none;align=left;verticalAlign=top;spacingLeft=4;spacingRight=4;overflow=hidden;rotatable=0;points=[[0,0.5],[1,0.5]];portConstraint=eastwest;whiteSpace=wrap;html=1;" parent="OSObfnmbwBIl3ngkpUWz-27" vertex="1">
          <mxGeometry y="112" width="350" height="26" as="geometry" />
        </mxCell>
        <mxCell id="OSObfnmbwBIl3ngkpUWz-33" value="+ seleciona_curso" style="text;strokeColor=none;fillColor=none;align=left;verticalAlign=top;spacingLeft=4;spacingRight=4;overflow=hidden;rotatable=0;points=[[0,0.5],[1,0.5]];portConstraint=eastwest;whiteSpace=wrap;html=1;" parent="OSObfnmbwBIl3ngkpUWz-27" vertex="1">
          <mxGeometry y="138" width="350" height="26" as="geometry" />
        </mxCell>
        <mxCell id="OSObfnmbwBIl3ngkpUWz-34" value="+ mostra_mensagem(msg)" style="text;strokeColor=none;fillColor=none;align=left;verticalAlign=top;spacingLeft=4;spacingRight=4;overflow=hidden;rotatable=0;points=[[0,0.5],[1,0.5]];portConstraint=eastwest;whiteSpace=wrap;html=1;" parent="OSObfnmbwBIl3ngkpUWz-27" vertex="1">
          <mxGeometry y="164" width="350" height="26" as="geometry" />
        </mxCell>
        <mxCell id="OSObfnmbwBIl3ngkpUWz-35" value="ControladorEquipes" style="swimlane;fontStyle=1;align=center;verticalAlign=top;childLayout=stackLayout;horizontal=1;startSize=26;horizontalStack=0;resizeParent=1;resizeParentMax=0;resizeLast=0;collapsible=1;marginBottom=0;whiteSpace=wrap;html=1;" parent="1" vertex="1">
          <mxGeometry x="500" y="-572" width="360" height="554" as="geometry" />
        </mxCell>
        <mxCell id="OSObfnmbwBIl3ngkpUWz-36" value="" style="line;strokeWidth=1;fillColor=none;align=left;verticalAlign=middle;spacingTop=-1;spacingLeft=3;spacingRight=3;rotatable=0;labelPosition=right;points=[];portConstraint=eastwest;strokeColor=inherit;" parent="OSObfnmbwBIl3ngkpUWz-35" vertex="1">
          <mxGeometry y="26" width="360" height="8" as="geometry" />
        </mxCell>
        <mxCell id="OSObfnmbwBIl3ngkpUWz-37" value="+ &amp;lt;&amp;lt;create&amp;gt;&amp;gt; __init__(controlador_sistema: ControladorSistema)&lt;div&gt;&lt;br&gt;&lt;/div&gt;" style="text;strokeColor=none;fillColor=none;align=left;verticalAlign=top;spacingLeft=4;spacingRight=4;overflow=hidden;rotatable=0;points=[[0,0.5],[1,0.5]];portConstraint=eastwest;whiteSpace=wrap;html=1;" parent="OSObfnmbwBIl3ngkpUWz-35" vertex="1">
          <mxGeometry y="34" width="360" height="26" as="geometry" />
        </mxCell>
        <mxCell id="z-3jtgrBwZ_cu0U_5YFZ-55" value="&lt;div&gt;+ equipes(): Equipe[ ]&lt;/div&gt;" style="text;strokeColor=none;fillColor=none;align=left;verticalAlign=top;spacingLeft=4;spacingRight=4;overflow=hidden;rotatable=0;points=[[0,0.5],[1,0.5]];portConstraint=eastwest;whiteSpace=wrap;html=1;" vertex="1" parent="OSObfnmbwBIl3ngkpUWz-35">
          <mxGeometry y="60" width="360" height="26" as="geometry" />
        </mxCell>
        <mxCell id="z-3jtgrBwZ_cu0U_5YFZ-56" value="+ tela_equipe(): TelaEquipe" style="text;strokeColor=none;fillColor=none;align=left;verticalAlign=top;spacingLeft=4;spacingRight=4;overflow=hidden;rotatable=0;points=[[0,0.5],[1,0.5]];portConstraint=eastwest;whiteSpace=wrap;html=1;" vertex="1" parent="OSObfnmbwBIl3ngkpUWz-35">
          <mxGeometry y="86" width="360" height="26" as="geometry" />
        </mxCell>
        <mxCell id="z-3jtgrBwZ_cu0U_5YFZ-57" value="+ controlador_sistema(): ControladorSistema" style="text;strokeColor=none;fillColor=none;align=left;verticalAlign=top;spacingLeft=4;spacingRight=4;overflow=hidden;rotatable=0;points=[[0,0.5],[1,0.5]];portConstraint=eastwest;whiteSpace=wrap;html=1;" vertex="1" parent="OSObfnmbwBIl3ngkpUWz-35">
          <mxGeometry y="112" width="360" height="26" as="geometry" />
        </mxCell>
        <mxCell id="M5kbGhWNzv6cmUeK2LbQ-11" value="+ lista_equipes()" style="text;strokeColor=none;fillColor=none;align=left;verticalAlign=top;spacingLeft=4;spacingRight=4;overflow=hidden;rotatable=0;points=[[0,0.5],[1,0.5]];portConstraint=eastwest;whiteSpace=wrap;html=1;" parent="OSObfnmbwBIl3ngkpUWz-35" vertex="1">
          <mxGeometry y="138" width="360" height="26" as="geometry" />
        </mxCell>
        <mxCell id="OSObfnmbwBIl3ngkpUWz-38" value="+ inclui_equipe()" style="text;strokeColor=none;fillColor=none;align=left;verticalAlign=top;spacingLeft=4;spacingRight=4;overflow=hidden;rotatable=0;points=[[0,0.5],[1,0.5]];portConstraint=eastwest;whiteSpace=wrap;html=1;" parent="OSObfnmbwBIl3ngkpUWz-35" vertex="1">
          <mxGeometry y="164" width="360" height="26" as="geometry" />
        </mxCell>
        <mxCell id="OSObfnmbwBIl3ngkpUWz-41" value="+ altera_equipe()" style="text;strokeColor=none;fillColor=none;align=left;verticalAlign=top;spacingLeft=4;spacingRight=4;overflow=hidden;rotatable=0;points=[[0,0.5],[1,0.5]];portConstraint=eastwest;whiteSpace=wrap;html=1;" parent="OSObfnmbwBIl3ngkpUWz-35" vertex="1">
          <mxGeometry y="190" width="360" height="26" as="geometry" />
        </mxCell>
        <mxCell id="OSObfnmbwBIl3ngkpUWz-39" value="+ exclui_equipe()" style="text;strokeColor=none;fillColor=none;align=left;verticalAlign=top;spacingLeft=4;spacingRight=4;overflow=hidden;rotatable=0;points=[[0,0.5],[1,0.5]];portConstraint=eastwest;whiteSpace=wrap;html=1;" parent="OSObfnmbwBIl3ngkpUWz-35" vertex="1">
          <mxGeometry y="216" width="360" height="26" as="geometry" />
        </mxCell>
        <mxCell id="OSObfnmbwBIl3ngkpUWz-40" value="+ pega_equipe_por_codigo(codigo: int)" style="text;strokeColor=none;fillColor=none;align=left;verticalAlign=top;spacingLeft=4;spacingRight=4;overflow=hidden;rotatable=0;points=[[0,0.5],[1,0.5]];portConstraint=eastwest;whiteSpace=wrap;html=1;" parent="OSObfnmbwBIl3ngkpUWz-35" vertex="1">
          <mxGeometry y="242" width="360" height="26" as="geometry" />
        </mxCell>
        <mxCell id="z-3jtgrBwZ_cu0U_5YFZ-58" value="+ mostra_alunos_equipe(codigo_equipe: int)" style="text;strokeColor=none;fillColor=none;align=left;verticalAlign=top;spacingLeft=4;spacingRight=4;overflow=hidden;rotatable=0;points=[[0,0.5],[1,0.5]];portConstraint=eastwest;whiteSpace=wrap;html=1;" vertex="1" parent="OSObfnmbwBIl3ngkpUWz-35">
          <mxGeometry y="268" width="360" height="26" as="geometry" />
        </mxCell>
        <mxCell id="OSObfnmbwBIl3ngkpUWz-52" value="+ adiciona_aluno_na_equipe()" style="text;strokeColor=none;fillColor=none;align=left;verticalAlign=top;spacingLeft=4;spacingRight=4;overflow=hidden;rotatable=0;points=[[0,0.5],[1,0.5]];portConstraint=eastwest;whiteSpace=wrap;html=1;" parent="OSObfnmbwBIl3ngkpUWz-35" vertex="1">
          <mxGeometry y="294" width="360" height="26" as="geometry" />
        </mxCell>
        <mxCell id="OSObfnmbwBIl3ngkpUWz-53" value="+ remove_aluno_da_equipe()" style="text;strokeColor=none;fillColor=none;align=left;verticalAlign=top;spacingLeft=4;spacingRight=4;overflow=hidden;rotatable=0;points=[[0,0.5],[1,0.5]];portConstraint=eastwest;whiteSpace=wrap;html=1;" parent="OSObfnmbwBIl3ngkpUWz-35" vertex="1">
          <mxGeometry y="320" width="360" height="26" as="geometry" />
        </mxCell>
        <mxCell id="ghrtqH5vHBBykUhaQ1Sb-3" value="+ adiciona_pontos_na_equipe(equipe: Equipe, pontos: int)" style="text;strokeColor=none;fillColor=none;align=left;verticalAlign=top;spacingLeft=4;spacingRight=4;overflow=hidden;rotatable=0;points=[[0,0.5],[1,0.5]];portConstraint=eastwest;whiteSpace=wrap;html=1;" parent="OSObfnmbwBIl3ngkpUWz-35" vertex="1">
          <mxGeometry y="346" width="360" height="26" as="geometry" />
        </mxCell>
        <mxCell id="z-3jtgrBwZ_cu0U_5YFZ-59" value="+ remove_pontos_da_equipe(equipe: Equipe, pontos: int)" style="text;strokeColor=none;fillColor=none;align=left;verticalAlign=top;spacingLeft=4;spacingRight=4;overflow=hidden;rotatable=0;points=[[0,0.5],[1,0.5]];portConstraint=eastwest;whiteSpace=wrap;html=1;" vertex="1" parent="OSObfnmbwBIl3ngkpUWz-35">
          <mxGeometry y="372" width="360" height="26" as="geometry" />
        </mxCell>
        <mxCell id="ghrtqH5vHBBykUhaQ1Sb-8" value="+ adiciona_gols_marcados_na equipe(equipe: Equipe, gols: int)" style="text;strokeColor=none;fillColor=none;align=left;verticalAlign=top;spacingLeft=4;spacingRight=4;overflow=hidden;rotatable=0;points=[[0,0.5],[1,0.5]];portConstraint=eastwest;whiteSpace=wrap;html=1;" parent="OSObfnmbwBIl3ngkpUWz-35" vertex="1">
          <mxGeometry y="398" width="360" height="26" as="geometry" />
        </mxCell>
        <mxCell id="z-3jtgrBwZ_cu0U_5YFZ-60" value="+ remove_gols_marcados_da equipe(equipe: Equipe, gols: int)" style="text;strokeColor=none;fillColor=none;align=left;verticalAlign=top;spacingLeft=4;spacingRight=4;overflow=hidden;rotatable=0;points=[[0,0.5],[1,0.5]];portConstraint=eastwest;whiteSpace=wrap;html=1;" vertex="1" parent="OSObfnmbwBIl3ngkpUWz-35">
          <mxGeometry y="424" width="360" height="26" as="geometry" />
        </mxCell>
        <mxCell id="ghrtqH5vHBBykUhaQ1Sb-9" value="+ adiciona_gols_sofridos_na_equipe(equipe: Equipe, gols: int)" style="text;strokeColor=none;fillColor=none;align=left;verticalAlign=top;spacingLeft=4;spacingRight=4;overflow=hidden;rotatable=0;points=[[0,0.5],[1,0.5]];portConstraint=eastwest;whiteSpace=wrap;html=1;" parent="OSObfnmbwBIl3ngkpUWz-35" vertex="1">
          <mxGeometry y="450" width="360" height="26" as="geometry" />
        </mxCell>
        <mxCell id="z-3jtgrBwZ_cu0U_5YFZ-61" value="+ remove_gols_sofridos_da_equipe(equipe: Equipe, gols: int)" style="text;strokeColor=none;fillColor=none;align=left;verticalAlign=top;spacingLeft=4;spacingRight=4;overflow=hidden;rotatable=0;points=[[0,0.5],[1,0.5]];portConstraint=eastwest;whiteSpace=wrap;html=1;" vertex="1" parent="OSObfnmbwBIl3ngkpUWz-35">
          <mxGeometry y="476" width="360" height="26" as="geometry" />
        </mxCell>
        <mxCell id="z-3jtgrBwZ_cu0U_5YFZ-62" value="+ retorna()" style="text;strokeColor=none;fillColor=none;align=left;verticalAlign=top;spacingLeft=4;spacingRight=4;overflow=hidden;rotatable=0;points=[[0,0.5],[1,0.5]];portConstraint=eastwest;whiteSpace=wrap;html=1;" vertex="1" parent="OSObfnmbwBIl3ngkpUWz-35">
          <mxGeometry y="502" width="360" height="26" as="geometry" />
        </mxCell>
        <mxCell id="OSObfnmbwBIl3ngkpUWz-43" value="+ abre_tela()" style="text;strokeColor=none;fillColor=none;align=left;verticalAlign=top;spacingLeft=4;spacingRight=4;overflow=hidden;rotatable=0;points=[[0,0.5],[1,0.5]];portConstraint=eastwest;whiteSpace=wrap;html=1;" parent="OSObfnmbwBIl3ngkpUWz-35" vertex="1">
          <mxGeometry y="528" width="360" height="26" as="geometry" />
        </mxCell>
        <mxCell id="OSObfnmbwBIl3ngkpUWz-79" value="TelaEquipe" style="swimlane;fontStyle=1;align=center;verticalAlign=top;childLayout=stackLayout;horizontal=1;startSize=26;horizontalStack=0;resizeParent=1;resizeParentMax=0;resizeLast=0;collapsible=1;marginBottom=0;whiteSpace=wrap;html=1;" parent="1" vertex="1">
          <mxGeometry x="670" y="-830" width="360" height="190" as="geometry" />
        </mxCell>
        <mxCell id="OSObfnmbwBIl3ngkpUWz-80" value="" style="line;strokeWidth=1;fillColor=none;align=left;verticalAlign=middle;spacingTop=-1;spacingLeft=3;spacingRight=3;rotatable=0;labelPosition=right;points=[];portConstraint=eastwest;strokeColor=inherit;" parent="OSObfnmbwBIl3ngkpUWz-79" vertex="1">
          <mxGeometry y="26" width="360" height="8" as="geometry" />
        </mxCell>
        <mxCell id="OSObfnmbwBIl3ngkpUWz-81" value="+ &amp;lt;&amp;lt;create&amp;gt;&amp;gt; __init__(controlador_equipes: ControladorEquipes)" style="text;strokeColor=none;fillColor=none;align=left;verticalAlign=top;spacingLeft=4;spacingRight=4;overflow=hidden;rotatable=0;points=[[0,0.5],[1,0.5]];portConstraint=eastwest;whiteSpace=wrap;html=1;" parent="OSObfnmbwBIl3ngkpUWz-79" vertex="1">
          <mxGeometry y="34" width="360" height="26" as="geometry" />
        </mxCell>
        <mxCell id="OSObfnmbwBIl3ngkpUWz-82" value="+ tela_opcoes()" style="text;strokeColor=none;fillColor=none;align=left;verticalAlign=top;spacingLeft=4;spacingRight=4;overflow=hidden;rotatable=0;points=[[0,0.5],[1,0.5]];portConstraint=eastwest;whiteSpace=wrap;html=1;" parent="OSObfnmbwBIl3ngkpUWz-79" vertex="1">
          <mxGeometry y="60" width="360" height="26" as="geometry" />
        </mxCell>
        <mxCell id="OSObfnmbwBIl3ngkpUWz-83" value="+ pega_dados_equipe(editando: bool)" style="text;strokeColor=none;fillColor=none;align=left;verticalAlign=top;spacingLeft=4;spacingRight=4;overflow=hidden;rotatable=0;points=[[0,0.5],[1,0.5]];portConstraint=eastwest;whiteSpace=wrap;html=1;" parent="OSObfnmbwBIl3ngkpUWz-79" vertex="1">
          <mxGeometry y="86" width="360" height="26" as="geometry" />
        </mxCell>
        <mxCell id="OSObfnmbwBIl3ngkpUWz-84" value="+ mostra_equipes(dados_equipe)" style="text;strokeColor=none;fillColor=none;align=left;verticalAlign=top;spacingLeft=4;spacingRight=4;overflow=hidden;rotatable=0;points=[[0,0.5],[1,0.5]];portConstraint=eastwest;whiteSpace=wrap;html=1;" parent="OSObfnmbwBIl3ngkpUWz-79" vertex="1">
          <mxGeometry y="112" width="360" height="26" as="geometry" />
        </mxCell>
        <mxCell id="OSObfnmbwBIl3ngkpUWz-85" value="+ seleciona_equipe()" style="text;strokeColor=none;fillColor=none;align=left;verticalAlign=top;spacingLeft=4;spacingRight=4;overflow=hidden;rotatable=0;points=[[0,0.5],[1,0.5]];portConstraint=eastwest;whiteSpace=wrap;html=1;" parent="OSObfnmbwBIl3ngkpUWz-79" vertex="1">
          <mxGeometry y="138" width="360" height="26" as="geometry" />
        </mxCell>
        <mxCell id="OSObfnmbwBIl3ngkpUWz-86" value="+ mostra_mensagem()" style="text;strokeColor=none;fillColor=none;align=left;verticalAlign=top;spacingLeft=4;spacingRight=4;overflow=hidden;rotatable=0;points=[[0,0.5],[1,0.5]];portConstraint=eastwest;whiteSpace=wrap;html=1;" parent="OSObfnmbwBIl3ngkpUWz-79" vertex="1">
          <mxGeometry y="164" width="360" height="26" as="geometry" />
        </mxCell>
        <mxCell id="OSObfnmbwBIl3ngkpUWz-95" value="TelaSistema" style="swimlane;fontStyle=1;align=center;verticalAlign=top;childLayout=stackLayout;horizontal=1;startSize=26;horizontalStack=0;resizeParent=1;resizeParentMax=0;resizeLast=0;collapsible=1;marginBottom=0;whiteSpace=wrap;html=1;" parent="1" vertex="1">
          <mxGeometry x="930" y="-1120" width="360" height="112" as="geometry" />
        </mxCell>
        <mxCell id="OSObfnmbwBIl3ngkpUWz-96" value="" style="line;strokeWidth=1;fillColor=none;align=left;verticalAlign=middle;spacingTop=-1;spacingLeft=3;spacingRight=3;rotatable=0;labelPosition=right;points=[];portConstraint=eastwest;strokeColor=inherit;" parent="OSObfnmbwBIl3ngkpUWz-95" vertex="1">
          <mxGeometry y="26" width="360" height="8" as="geometry" />
        </mxCell>
        <mxCell id="OSObfnmbwBIl3ngkpUWz-97" value="+ &amp;lt;&amp;lt;create&amp;gt;&amp;gt; __init__(controlador_sistema: ControladorSistema)" style="text;strokeColor=none;fillColor=none;align=left;verticalAlign=top;spacingLeft=4;spacingRight=4;overflow=hidden;rotatable=0;points=[[0,0.5],[1,0.5]];portConstraint=eastwest;whiteSpace=wrap;html=1;" parent="OSObfnmbwBIl3ngkpUWz-95" vertex="1">
          <mxGeometry y="34" width="360" height="26" as="geometry" />
        </mxCell>
        <mxCell id="OSObfnmbwBIl3ngkpUWz-98" value="+ tela_opcoes()" style="text;strokeColor=none;fillColor=none;align=left;verticalAlign=top;spacingLeft=4;spacingRight=4;overflow=hidden;rotatable=0;points=[[0,0.5],[1,0.5]];portConstraint=eastwest;whiteSpace=wrap;html=1;" parent="OSObfnmbwBIl3ngkpUWz-95" vertex="1">
          <mxGeometry y="60" width="360" height="26" as="geometry" />
        </mxCell>
        <mxCell id="z-3jtgrBwZ_cu0U_5YFZ-82" value="+ mostra_mensagem(msg)" style="text;strokeColor=none;fillColor=none;align=left;verticalAlign=top;spacingLeft=4;spacingRight=4;overflow=hidden;rotatable=0;points=[[0,0.5],[1,0.5]];portConstraint=eastwest;whiteSpace=wrap;html=1;" vertex="1" parent="OSObfnmbwBIl3ngkpUWz-95">
          <mxGeometry y="86" width="360" height="26" as="geometry" />
        </mxCell>
        <mxCell id="eIAJ73TEnIPq5N8NY3QO-2" value="ControladorSistema" style="swimlane;fontStyle=1;align=center;verticalAlign=top;childLayout=stackLayout;horizontal=1;startSize=26;horizontalStack=0;resizeParent=1;resizeParentMax=0;resizeLast=0;collapsible=1;marginBottom=0;whiteSpace=wrap;html=1;" parent="1" vertex="1">
          <mxGeometry x="400" y="-1360" width="330" height="476" as="geometry" />
        </mxCell>
        <mxCell id="eIAJ73TEnIPq5N8NY3QO-3" value="" style="line;strokeWidth=1;fillColor=none;align=left;verticalAlign=middle;spacingTop=-1;spacingLeft=3;spacingRight=3;rotatable=0;labelPosition=right;points=[];portConstraint=eastwest;strokeColor=inherit;" parent="eIAJ73TEnIPq5N8NY3QO-2" vertex="1">
          <mxGeometry y="26" width="330" height="8" as="geometry" />
        </mxCell>
        <mxCell id="eIAJ73TEnIPq5N8NY3QO-4" value="+ &amp;lt;&amp;lt;create&amp;gt;&amp;gt; __init__()&lt;div&gt;&lt;br&gt;&lt;/div&gt;" style="text;strokeColor=none;fillColor=none;align=left;verticalAlign=top;spacingLeft=4;spacingRight=4;overflow=hidden;rotatable=0;points=[[0,0.5],[1,0.5]];portConstraint=eastwest;whiteSpace=wrap;html=1;" parent="eIAJ73TEnIPq5N8NY3QO-2" vertex="1">
          <mxGeometry y="34" width="330" height="26" as="geometry" />
        </mxCell>
        <mxCell id="z-3jtgrBwZ_cu0U_5YFZ-83" value="&lt;div&gt;+ controlador_cursos(): ControladorCursos&lt;/div&gt;" style="text;strokeColor=none;fillColor=none;align=left;verticalAlign=top;spacingLeft=4;spacingRight=4;overflow=hidden;rotatable=0;points=[[0,0.5],[1,0.5]];portConstraint=eastwest;whiteSpace=wrap;html=1;" vertex="1" parent="eIAJ73TEnIPq5N8NY3QO-2">
          <mxGeometry y="60" width="330" height="26" as="geometry" />
        </mxCell>
        <mxCell id="z-3jtgrBwZ_cu0U_5YFZ-84" value="&lt;div&gt;+ controlador_alunos(): ControladorAlunos&lt;/div&gt;" style="text;strokeColor=none;fillColor=none;align=left;verticalAlign=top;spacingLeft=4;spacingRight=4;overflow=hidden;rotatable=0;points=[[0,0.5],[1,0.5]];portConstraint=eastwest;whiteSpace=wrap;html=1;" vertex="1" parent="eIAJ73TEnIPq5N8NY3QO-2">
          <mxGeometry y="86" width="330" height="26" as="geometry" />
        </mxCell>
        <mxCell id="z-3jtgrBwZ_cu0U_5YFZ-85" value="+ controlador_equipes(): ControladorEquipes" style="text;strokeColor=none;fillColor=none;align=left;verticalAlign=top;spacingLeft=4;spacingRight=4;overflow=hidden;rotatable=0;points=[[0,0.5],[1,0.5]];portConstraint=eastwest;whiteSpace=wrap;html=1;" vertex="1" parent="eIAJ73TEnIPq5N8NY3QO-2">
          <mxGeometry y="112" width="330" height="26" as="geometry" />
        </mxCell>
        <mxCell id="z-3jtgrBwZ_cu0U_5YFZ-86" value="+ controlador_arbitros(): ControladorArbitros" style="text;strokeColor=none;fillColor=none;align=left;verticalAlign=top;spacingLeft=4;spacingRight=4;overflow=hidden;rotatable=0;points=[[0,0.5],[1,0.5]];portConstraint=eastwest;whiteSpace=wrap;html=1;" vertex="1" parent="eIAJ73TEnIPq5N8NY3QO-2">
          <mxGeometry y="138" width="330" height="26" as="geometry" />
        </mxCell>
        <mxCell id="z-3jtgrBwZ_cu0U_5YFZ-87" value="+ controlador_campeonatos(): ControladorCampeonatos" style="text;strokeColor=none;fillColor=none;align=left;verticalAlign=top;spacingLeft=4;spacingRight=4;overflow=hidden;rotatable=0;points=[[0,0.5],[1,0.5]];portConstraint=eastwest;whiteSpace=wrap;html=1;" vertex="1" parent="eIAJ73TEnIPq5N8NY3QO-2">
          <mxGeometry y="164" width="330" height="26" as="geometry" />
        </mxCell>
        <mxCell id="z-3jtgrBwZ_cu0U_5YFZ-88" value="+ controlador_partidas(): ControladorPartidas" style="text;strokeColor=none;fillColor=none;align=left;verticalAlign=top;spacingLeft=4;spacingRight=4;overflow=hidden;rotatable=0;points=[[0,0.5],[1,0.5]];portConstraint=eastwest;whiteSpace=wrap;html=1;" vertex="1" parent="eIAJ73TEnIPq5N8NY3QO-2">
          <mxGeometry y="190" width="330" height="26" as="geometry" />
        </mxCell>
        <mxCell id="eIAJ73TEnIPq5N8NY3QO-5" value="+ inicializa_sistema()" style="text;strokeColor=none;fillColor=none;align=left;verticalAlign=top;spacingLeft=4;spacingRight=4;overflow=hidden;rotatable=0;points=[[0,0.5],[1,0.5]];portConstraint=eastwest;whiteSpace=wrap;html=1;" parent="eIAJ73TEnIPq5N8NY3QO-2" vertex="1">
          <mxGeometry y="216" width="330" height="26" as="geometry" />
        </mxCell>
        <mxCell id="M5kbGhWNzv6cmUeK2LbQ-6" value="+ abre_tela_curso()" style="text;strokeColor=none;fillColor=none;align=left;verticalAlign=top;spacingLeft=4;spacingRight=4;overflow=hidden;rotatable=0;points=[[0,0.5],[1,0.5]];portConstraint=eastwest;whiteSpace=wrap;html=1;" parent="eIAJ73TEnIPq5N8NY3QO-2" vertex="1">
          <mxGeometry y="242" width="330" height="26" as="geometry" />
        </mxCell>
        <mxCell id="M5kbGhWNzv6cmUeK2LbQ-5" value="+ abre_tela_aluno()" style="text;strokeColor=none;fillColor=none;align=left;verticalAlign=top;spacingLeft=4;spacingRight=4;overflow=hidden;rotatable=0;points=[[0,0.5],[1,0.5]];portConstraint=eastwest;whiteSpace=wrap;html=1;" parent="eIAJ73TEnIPq5N8NY3QO-2" vertex="1">
          <mxGeometry y="268" width="330" height="26" as="geometry" />
        </mxCell>
        <mxCell id="M5kbGhWNzv6cmUeK2LbQ-3" value="+ abre_tela_equipe()" style="text;strokeColor=none;fillColor=none;align=left;verticalAlign=top;spacingLeft=4;spacingRight=4;overflow=hidden;rotatable=0;points=[[0,0.5],[1,0.5]];portConstraint=eastwest;whiteSpace=wrap;html=1;" parent="eIAJ73TEnIPq5N8NY3QO-2" vertex="1">
          <mxGeometry y="294" width="330" height="26" as="geometry" />
        </mxCell>
        <mxCell id="M5kbGhWNzv6cmUeK2LbQ-7" value="+ abre_tela_arbitro()" style="text;strokeColor=none;fillColor=none;align=left;verticalAlign=top;spacingLeft=4;spacingRight=4;overflow=hidden;rotatable=0;points=[[0,0.5],[1,0.5]];portConstraint=eastwest;whiteSpace=wrap;html=1;" parent="eIAJ73TEnIPq5N8NY3QO-2" vertex="1">
          <mxGeometry y="320" width="330" height="26" as="geometry" />
        </mxCell>
        <mxCell id="M5kbGhWNzv6cmUeK2LbQ-4" value="+ abre_tela_partida()" style="text;strokeColor=none;fillColor=none;align=left;verticalAlign=top;spacingLeft=4;spacingRight=4;overflow=hidden;rotatable=0;points=[[0,0.5],[1,0.5]];portConstraint=eastwest;whiteSpace=wrap;html=1;" parent="eIAJ73TEnIPq5N8NY3QO-2" vertex="1">
          <mxGeometry y="346" width="330" height="26" as="geometry" />
        </mxCell>
        <mxCell id="z-3jtgrBwZ_cu0U_5YFZ-89" value="+ inicia_campeonato()" style="text;strokeColor=none;fillColor=none;align=left;verticalAlign=top;spacingLeft=4;spacingRight=4;overflow=hidden;rotatable=0;points=[[0,0.5],[1,0.5]];portConstraint=eastwest;whiteSpace=wrap;html=1;" vertex="1" parent="eIAJ73TEnIPq5N8NY3QO-2">
          <mxGeometry y="372" width="330" height="26" as="geometry" />
        </mxCell>
        <mxCell id="z-3jtgrBwZ_cu0U_5YFZ-90" value="+ finaliza_campeonato()" style="text;strokeColor=none;fillColor=none;align=left;verticalAlign=top;spacingLeft=4;spacingRight=4;overflow=hidden;rotatable=0;points=[[0,0.5],[1,0.5]];portConstraint=eastwest;whiteSpace=wrap;html=1;" vertex="1" parent="eIAJ73TEnIPq5N8NY3QO-2">
          <mxGeometry y="398" width="330" height="26" as="geometry" />
        </mxCell>
        <mxCell id="eIAJ73TEnIPq5N8NY3QO-6" value="+ encerra_sistema()" style="text;strokeColor=none;fillColor=none;align=left;verticalAlign=top;spacingLeft=4;spacingRight=4;overflow=hidden;rotatable=0;points=[[0,0.5],[1,0.5]];portConstraint=eastwest;whiteSpace=wrap;html=1;" parent="eIAJ73TEnIPq5N8NY3QO-2" vertex="1">
          <mxGeometry y="424" width="330" height="26" as="geometry" />
        </mxCell>
        <mxCell id="z-3jtgrBwZ_cu0U_5YFZ-91" value="+ abre_tela()" style="text;strokeColor=none;fillColor=none;align=left;verticalAlign=top;spacingLeft=4;spacingRight=4;overflow=hidden;rotatable=0;points=[[0,0.5],[1,0.5]];portConstraint=eastwest;whiteSpace=wrap;html=1;" vertex="1" parent="eIAJ73TEnIPq5N8NY3QO-2">
          <mxGeometry y="450" width="330" height="26" as="geometry" />
        </mxCell>
        <mxCell id="eIAJ73TEnIPq5N8NY3QO-19" value="ControladorPartidas" style="swimlane;fontStyle=1;align=center;verticalAlign=top;childLayout=stackLayout;horizontal=1;startSize=26;horizontalStack=0;resizeParent=1;resizeParentMax=0;resizeLast=0;collapsible=1;marginBottom=0;whiteSpace=wrap;html=1;" parent="1" vertex="1">
          <mxGeometry x="1570" y="656" width="360" height="294" as="geometry" />
        </mxCell>
        <mxCell id="eIAJ73TEnIPq5N8NY3QO-20" value="" style="line;strokeWidth=1;fillColor=none;align=left;verticalAlign=middle;spacingTop=-1;spacingLeft=3;spacingRight=3;rotatable=0;labelPosition=right;points=[];portConstraint=eastwest;strokeColor=inherit;" parent="eIAJ73TEnIPq5N8NY3QO-19" vertex="1">
          <mxGeometry y="26" width="360" height="8" as="geometry" />
        </mxCell>
        <mxCell id="eIAJ73TEnIPq5N8NY3QO-21" value="+ &amp;lt;&amp;lt;create&amp;gt;&amp;gt; __init__(controlador_sistema: ControladorSistema)" style="text;strokeColor=none;fillColor=none;align=left;verticalAlign=top;spacingLeft=4;spacingRight=4;overflow=hidden;rotatable=0;points=[[0,0.5],[1,0.5]];portConstraint=eastwest;whiteSpace=wrap;html=1;" parent="eIAJ73TEnIPq5N8NY3QO-19" vertex="1">
          <mxGeometry y="34" width="360" height="26" as="geometry" />
        </mxCell>
        <mxCell id="z-3jtgrBwZ_cu0U_5YFZ-75" value="+ tela_partida(): TelaPartida" style="text;strokeColor=none;fillColor=none;align=left;verticalAlign=top;spacingLeft=4;spacingRight=4;overflow=hidden;rotatable=0;points=[[0,0.5],[1,0.5]];portConstraint=eastwest;whiteSpace=wrap;html=1;" vertex="1" parent="eIAJ73TEnIPq5N8NY3QO-19">
          <mxGeometry y="60" width="360" height="26" as="geometry" />
        </mxCell>
        <mxCell id="z-3jtgrBwZ_cu0U_5YFZ-76" value="+ controlador_sistema(): ControladorSistema" style="text;strokeColor=none;fillColor=none;align=left;verticalAlign=top;spacingLeft=4;spacingRight=4;overflow=hidden;rotatable=0;points=[[0,0.5],[1,0.5]];portConstraint=eastwest;whiteSpace=wrap;html=1;" vertex="1" parent="eIAJ73TEnIPq5N8NY3QO-19">
          <mxGeometry y="86" width="360" height="26" as="geometry" />
        </mxCell>
        <mxCell id="ghrtqH5vHBBykUhaQ1Sb-17" value="+ lista_partidas()" style="text;strokeColor=none;fillColor=none;align=left;verticalAlign=top;spacingLeft=4;spacingRight=4;overflow=hidden;rotatable=0;points=[[0,0.5],[1,0.5]];portConstraint=eastwest;whiteSpace=wrap;html=1;" parent="eIAJ73TEnIPq5N8NY3QO-19" vertex="1">
          <mxGeometry y="112" width="360" height="26" as="geometry" />
        </mxCell>
        <mxCell id="eIAJ73TEnIPq5N8NY3QO-22" value="+ inclui_partida(dados_partida)" style="text;strokeColor=none;fillColor=none;align=left;verticalAlign=top;spacingLeft=4;spacingRight=4;overflow=hidden;rotatable=0;points=[[0,0.5],[1,0.5]];portConstraint=eastwest;whiteSpace=wrap;html=1;" parent="eIAJ73TEnIPq5N8NY3QO-19" vertex="1">
          <mxGeometry y="138" width="360" height="26" as="geometry" />
        </mxCell>
        <mxCell id="eIAJ73TEnIPq5N8NY3QO-24" value="+ pega_partida_por_codigo(codigo: int)" style="text;strokeColor=none;fillColor=none;align=left;verticalAlign=top;spacingLeft=4;spacingRight=4;overflow=hidden;rotatable=0;points=[[0,0.5],[1,0.5]];portConstraint=eastwest;whiteSpace=wrap;html=1;" parent="eIAJ73TEnIPq5N8NY3QO-19" vertex="1">
          <mxGeometry y="164" width="360" height="26" as="geometry" />
        </mxCell>
        <mxCell id="eIAJ73TEnIPq5N8NY3QO-25" value="+ adiciona_gols_partida()" style="text;strokeColor=none;fillColor=none;align=left;verticalAlign=top;spacingLeft=4;spacingRight=4;overflow=hidden;rotatable=0;points=[[0,0.5],[1,0.5]];portConstraint=eastwest;whiteSpace=wrap;html=1;" parent="eIAJ73TEnIPq5N8NY3QO-19" vertex="1">
          <mxGeometry y="190" width="360" height="26" as="geometry" />
        </mxCell>
        <mxCell id="eIAJ73TEnIPq5N8NY3QO-23" value="+ gera_dados_partida(partida: Partida)" style="text;strokeColor=none;fillColor=none;align=left;verticalAlign=top;spacingLeft=4;spacingRight=4;overflow=hidden;rotatable=0;points=[[0,0.5],[1,0.5]];portConstraint=eastwest;whiteSpace=wrap;html=1;" parent="eIAJ73TEnIPq5N8NY3QO-19" vertex="1">
          <mxGeometry y="216" width="360" height="26" as="geometry" />
        </mxCell>
        <mxCell id="ghrtqH5vHBBykUhaQ1Sb-21" value="+ retorna()" style="text;strokeColor=none;fillColor=none;align=left;verticalAlign=top;spacingLeft=4;spacingRight=4;overflow=hidden;rotatable=0;points=[[0,0.5],[1,0.5]];portConstraint=eastwest;whiteSpace=wrap;html=1;" parent="eIAJ73TEnIPq5N8NY3QO-19" vertex="1">
          <mxGeometry y="242" width="360" height="26" as="geometry" />
        </mxCell>
        <mxCell id="eIAJ73TEnIPq5N8NY3QO-27" value="+ abre_tela()" style="text;strokeColor=none;fillColor=none;align=left;verticalAlign=top;spacingLeft=4;spacingRight=4;overflow=hidden;rotatable=0;points=[[0,0.5],[1,0.5]];portConstraint=eastwest;whiteSpace=wrap;html=1;" parent="eIAJ73TEnIPq5N8NY3QO-19" vertex="1">
          <mxGeometry y="268" width="360" height="26" as="geometry" />
        </mxCell>
        <mxCell id="eIAJ73TEnIPq5N8NY3QO-37" value="TelaPartida" style="swimlane;fontStyle=1;align=center;verticalAlign=top;childLayout=stackLayout;horizontal=1;startSize=26;horizontalStack=0;resizeParent=1;resizeParentMax=0;resizeLast=0;collapsible=1;marginBottom=0;whiteSpace=wrap;html=1;" parent="1" vertex="1">
          <mxGeometry x="1790" y="1040" width="360" height="190" as="geometry" />
        </mxCell>
        <mxCell id="eIAJ73TEnIPq5N8NY3QO-38" value="" style="line;strokeWidth=1;fillColor=none;align=left;verticalAlign=middle;spacingTop=-1;spacingLeft=3;spacingRight=3;rotatable=0;labelPosition=right;points=[];portConstraint=eastwest;strokeColor=inherit;" parent="eIAJ73TEnIPq5N8NY3QO-37" vertex="1">
          <mxGeometry y="26" width="360" height="8" as="geometry" />
        </mxCell>
        <mxCell id="eIAJ73TEnIPq5N8NY3QO-39" value="+ &amp;lt;&amp;lt;create&amp;gt;&amp;gt; __init__(controlador_partidas: ControladorPartidas)&lt;div&gt;&lt;br&gt;&lt;/div&gt;" style="text;strokeColor=none;fillColor=none;align=left;verticalAlign=top;spacingLeft=4;spacingRight=4;overflow=hidden;rotatable=0;points=[[0,0.5],[1,0.5]];portConstraint=eastwest;whiteSpace=wrap;html=1;" parent="eIAJ73TEnIPq5N8NY3QO-37" vertex="1">
          <mxGeometry y="34" width="360" height="26" as="geometry" />
        </mxCell>
        <mxCell id="eIAJ73TEnIPq5N8NY3QO-40" value="+ tela_opcoes()" style="text;strokeColor=none;fillColor=none;align=left;verticalAlign=top;spacingLeft=4;spacingRight=4;overflow=hidden;rotatable=0;points=[[0,0.5],[1,0.5]];portConstraint=eastwest;whiteSpace=wrap;html=1;" parent="eIAJ73TEnIPq5N8NY3QO-37" vertex="1">
          <mxGeometry y="60" width="360" height="26" as="geometry" />
        </mxCell>
        <mxCell id="eIAJ73TEnIPq5N8NY3QO-41" value="+ pega_gols_partida(partida: Partida)" style="text;strokeColor=none;fillColor=none;align=left;verticalAlign=top;spacingLeft=4;spacingRight=4;overflow=hidden;rotatable=0;points=[[0,0.5],[1,0.5]];portConstraint=eastwest;whiteSpace=wrap;html=1;" parent="eIAJ73TEnIPq5N8NY3QO-37" vertex="1">
          <mxGeometry y="86" width="360" height="26" as="geometry" />
        </mxCell>
        <mxCell id="eIAJ73TEnIPq5N8NY3QO-42" value="+ mostra_partida(dados_partida)" style="text;strokeColor=none;fillColor=none;align=left;verticalAlign=top;spacingLeft=4;spacingRight=4;overflow=hidden;rotatable=0;points=[[0,0.5],[1,0.5]];portConstraint=eastwest;whiteSpace=wrap;html=1;" parent="eIAJ73TEnIPq5N8NY3QO-37" vertex="1">
          <mxGeometry y="112" width="360" height="26" as="geometry" />
        </mxCell>
        <mxCell id="eIAJ73TEnIPq5N8NY3QO-43" value="+ seleciona_partida()" style="text;strokeColor=none;fillColor=none;align=left;verticalAlign=top;spacingLeft=4;spacingRight=4;overflow=hidden;rotatable=0;points=[[0,0.5],[1,0.5]];portConstraint=eastwest;whiteSpace=wrap;html=1;" parent="eIAJ73TEnIPq5N8NY3QO-37" vertex="1">
          <mxGeometry y="138" width="360" height="26" as="geometry" />
        </mxCell>
        <mxCell id="eIAJ73TEnIPq5N8NY3QO-44" value="+ mostra_mensagem(msg)" style="text;strokeColor=none;fillColor=none;align=left;verticalAlign=top;spacingLeft=4;spacingRight=4;overflow=hidden;rotatable=0;points=[[0,0.5],[1,0.5]];portConstraint=eastwest;whiteSpace=wrap;html=1;" parent="eIAJ73TEnIPq5N8NY3QO-37" vertex="1">
          <mxGeometry y="164" width="360" height="26" as="geometry" />
        </mxCell>
        <mxCell id="eIAJ73TEnIPq5N8NY3QO-45" value="ControladorCampeonatos" style="swimlane;fontStyle=1;align=center;verticalAlign=top;childLayout=stackLayout;horizontal=1;startSize=26;horizontalStack=0;resizeParent=1;resizeParentMax=0;resizeLast=0;collapsible=1;marginBottom=0;whiteSpace=wrap;html=1;" parent="1" vertex="1">
          <mxGeometry x="1240" y="-461" width="360" height="242" as="geometry" />
        </mxCell>
        <mxCell id="eIAJ73TEnIPq5N8NY3QO-46" value="" style="line;strokeWidth=1;fillColor=none;align=left;verticalAlign=middle;spacingTop=-1;spacingLeft=3;spacingRight=3;rotatable=0;labelPosition=right;points=[];portConstraint=eastwest;strokeColor=inherit;" parent="eIAJ73TEnIPq5N8NY3QO-45" vertex="1">
          <mxGeometry y="26" width="360" height="8" as="geometry" />
        </mxCell>
        <mxCell id="eIAJ73TEnIPq5N8NY3QO-47" value="+ &amp;lt;&amp;lt;create&amp;gt;&amp;gt; __init__(controlador_sistema: ControladorSistema)" style="text;strokeColor=none;fillColor=none;align=left;verticalAlign=top;spacingLeft=4;spacingRight=4;overflow=hidden;rotatable=0;points=[[0,0.5],[1,0.5]];portConstraint=eastwest;whiteSpace=wrap;html=1;" parent="eIAJ73TEnIPq5N8NY3QO-45" vertex="1">
          <mxGeometry y="34" width="360" height="26" as="geometry" />
        </mxCell>
        <mxCell id="z-3jtgrBwZ_cu0U_5YFZ-81" value="+ controlador_sistema(): ControladorSitema" style="text;strokeColor=none;fillColor=none;align=left;verticalAlign=top;spacingLeft=4;spacingRight=4;overflow=hidden;rotatable=0;points=[[0,0.5],[1,0.5]];portConstraint=eastwest;whiteSpace=wrap;html=1;" vertex="1" parent="eIAJ73TEnIPq5N8NY3QO-45">
          <mxGeometry y="60" width="360" height="26" as="geometry" />
        </mxCell>
        <mxCell id="ghrtqH5vHBBykUhaQ1Sb-50" value="+ inclui_campeonato(codigo: int, equipes: Equipe[ ])" style="text;strokeColor=none;fillColor=none;align=left;verticalAlign=top;spacingLeft=4;spacingRight=4;overflow=hidden;rotatable=0;points=[[0,0.5],[1,0.5]];portConstraint=eastwest;whiteSpace=wrap;html=1;" parent="eIAJ73TEnIPq5N8NY3QO-45" vertex="1">
          <mxGeometry y="86" width="360" height="26" as="geometry" />
        </mxCell>
        <mxCell id="eIAJ73TEnIPq5N8NY3QO-49" value="+ cria_partidas_do_campeonato()" style="text;strokeColor=none;fillColor=none;align=left;verticalAlign=top;spacingLeft=4;spacingRight=4;overflow=hidden;rotatable=0;points=[[0,0.5],[1,0.5]];portConstraint=eastwest;whiteSpace=wrap;html=1;" parent="eIAJ73TEnIPq5N8NY3QO-45" vertex="1">
          <mxGeometry y="112" width="360" height="26" as="geometry" />
        </mxCell>
        <mxCell id="eIAJ73TEnIPq5N8NY3QO-50" value="+ adiciona_partida_campeonato(partida: Partida)" style="text;strokeColor=none;fillColor=none;align=left;verticalAlign=top;spacingLeft=4;spacingRight=4;overflow=hidden;rotatable=0;points=[[0,0.5],[1,0.5]];portConstraint=eastwest;whiteSpace=wrap;html=1;" parent="eIAJ73TEnIPq5N8NY3QO-45" vertex="1">
          <mxGeometry y="138" width="360" height="26" as="geometry" />
        </mxCell>
        <mxCell id="eIAJ73TEnIPq5N8NY3QO-51" value="+ finaliza_campeonato()" style="text;strokeColor=none;fillColor=none;align=left;verticalAlign=top;spacingLeft=4;spacingRight=4;overflow=hidden;rotatable=0;points=[[0,0.5],[1,0.5]];portConstraint=eastwest;whiteSpace=wrap;html=1;" parent="eIAJ73TEnIPq5N8NY3QO-45" vertex="1">
          <mxGeometry y="164" width="360" height="26" as="geometry" />
        </mxCell>
        <mxCell id="VWIoromdeVteyUXSWohZ-8" value="+ gera_relatorio" style="text;strokeColor=none;fillColor=none;align=left;verticalAlign=top;spacingLeft=4;spacingRight=4;overflow=hidden;rotatable=0;points=[[0,0.5],[1,0.5]];portConstraint=eastwest;whiteSpace=wrap;html=1;" parent="eIAJ73TEnIPq5N8NY3QO-45" vertex="1">
          <mxGeometry y="190" width="360" height="26" as="geometry" />
        </mxCell>
        <mxCell id="VWIoromdeVteyUXSWohZ-9" value="+ retorna()" style="text;strokeColor=none;fillColor=none;align=left;verticalAlign=top;spacingLeft=4;spacingRight=4;overflow=hidden;rotatable=0;points=[[0,0.5],[1,0.5]];portConstraint=eastwest;whiteSpace=wrap;html=1;" parent="eIAJ73TEnIPq5N8NY3QO-45" vertex="1">
          <mxGeometry y="216" width="360" height="26" as="geometry" />
        </mxCell>
        <mxCell id="eIAJ73TEnIPq5N8NY3QO-63" value="TelaCampeonato" style="swimlane;fontStyle=1;align=center;verticalAlign=top;childLayout=stackLayout;horizontal=1;startSize=26;horizontalStack=0;resizeParent=1;resizeParentMax=0;resizeLast=0;collapsible=1;marginBottom=0;whiteSpace=wrap;html=1;" parent="1" vertex="1">
          <mxGeometry x="1420" y="-810" width="420" height="86" as="geometry" />
        </mxCell>
        <mxCell id="eIAJ73TEnIPq5N8NY3QO-64" value="" style="line;strokeWidth=1;fillColor=none;align=left;verticalAlign=middle;spacingTop=-1;spacingLeft=3;spacingRight=3;rotatable=0;labelPosition=right;points=[];portConstraint=eastwest;strokeColor=inherit;" parent="eIAJ73TEnIPq5N8NY3QO-63" vertex="1">
          <mxGeometry y="26" width="420" height="8" as="geometry" />
        </mxCell>
        <mxCell id="eIAJ73TEnIPq5N8NY3QO-65" value="+ &amp;lt;&amp;lt;create&amp;gt;&amp;gt; __init__(controlador_campeonatos: ControladorCampeonatos)&lt;div&gt;&lt;br&gt;&lt;/div&gt;" style="text;strokeColor=none;fillColor=none;align=left;verticalAlign=top;spacingLeft=4;spacingRight=4;overflow=hidden;rotatable=0;points=[[0,0.5],[1,0.5]];portConstraint=eastwest;whiteSpace=wrap;html=1;" parent="eIAJ73TEnIPq5N8NY3QO-63" vertex="1">
          <mxGeometry y="34" width="420" height="26" as="geometry" />
        </mxCell>
        <mxCell id="eIAJ73TEnIPq5N8NY3QO-70" value="+ mostra_mensagem(msg)" style="text;strokeColor=none;fillColor=none;align=left;verticalAlign=top;spacingLeft=4;spacingRight=4;overflow=hidden;rotatable=0;points=[[0,0.5],[1,0.5]];portConstraint=eastwest;whiteSpace=wrap;html=1;" parent="eIAJ73TEnIPq5N8NY3QO-63" vertex="1">
          <mxGeometry y="60" width="420" height="26" as="geometry" />
        </mxCell>
        <mxCell id="ra7vQ8JuPsrU5PklDh2I-5" value="1" style="text;html=1;align=center;verticalAlign=middle;whiteSpace=wrap;rounded=0;" parent="1" vertex="1">
          <mxGeometry x="-95" y="405" width="20" height="20" as="geometry" />
        </mxCell>
        <mxCell id="ilpft1NIrWu3d606YRAC-12" value="" style="endArrow=open;endFill=1;endSize=12;html=1;rounded=0;entryX=1.003;entryY=1.154;entryDx=0;entryDy=0;entryPerimeter=0;exitX=0;exitY=0.25;exitDx=0;exitDy=0;" parent="1" source="BlP67hDM90NLHeMDUVXd-4" target="42rT5aTTlDtqcZQRqHW7-1" edge="1">
          <mxGeometry width="160" relative="1" as="geometry">
            <mxPoint x="356" y="250" as="sourcePoint" />
            <mxPoint x="170" y="531" as="targetPoint" />
            <Array as="points">
              <mxPoint x="240" y="192" />
              <mxPoint x="240" y="360" />
              <mxPoint x="240" y="520" />
            </Array>
          </mxGeometry>
        </mxCell>
        <mxCell id="ilpft1NIrWu3d606YRAC-13" value="1" style="text;html=1;align=center;verticalAlign=middle;whiteSpace=wrap;rounded=0;" parent="1" vertex="1">
          <mxGeometry x="70" y="500" width="20" height="10" as="geometry" />
        </mxCell>
        <mxCell id="ilpft1NIrWu3d606YRAC-14" value="1..*" style="text;html=1;align=center;verticalAlign=middle;whiteSpace=wrap;rounded=0;" parent="1" vertex="1">
          <mxGeometry x="330" y="170" width="20" height="10" as="geometry" />
        </mxCell>
        <mxCell id="ilpft1NIrWu3d606YRAC-22" value="0..*" style="text;html=1;align=center;verticalAlign=middle;whiteSpace=wrap;rounded=0;" parent="1" vertex="1">
          <mxGeometry x="735" y="676" width="20" height="10" as="geometry" />
        </mxCell>
        <mxCell id="ilpft1NIrWu3d606YRAC-23" value="0..*" style="text;html=1;align=center;verticalAlign=middle;whiteSpace=wrap;rounded=0;" parent="1" vertex="1">
          <mxGeometry x="-95" y="370" width="20" height="10" as="geometry" />
        </mxCell>
        <mxCell id="ilpft1NIrWu3d606YRAC-29" value="- arbitros" style="text;strokeColor=none;fillColor=none;align=left;verticalAlign=top;spacingLeft=4;spacingRight=4;overflow=hidden;rotatable=0;points=[[0,0.5],[1,0.5]];portConstraint=eastwest;whiteSpace=wrap;html=1;" parent="1" vertex="1">
          <mxGeometry x="-690" y="614" width="60" height="26" as="geometry" />
        </mxCell>
        <mxCell id="ilpft1NIrWu3d606YRAC-33" value="" style="endArrow=open;endFill=1;endSize=12;html=1;rounded=0;exitX=0.463;exitY=1.154;exitDx=0;exitDy=0;exitPerimeter=0;entryX=0;entryY=0.5;entryDx=0;entryDy=0;" parent="1" source="whfUZhFvRBQpakOQNN74-19" target="whfUZhFvRBQpakOQNN74-25" edge="1">
          <mxGeometry width="160" relative="1" as="geometry">
            <mxPoint x="-710" y="1130" as="sourcePoint" />
            <mxPoint x="-620" y="1130" as="targetPoint" />
            <Array as="points">
              <mxPoint x="-640" y="1260" />
            </Array>
          </mxGeometry>
        </mxCell>
        <mxCell id="ilpft1NIrWu3d606YRAC-34" value="" style="endArrow=open;endFill=1;endSize=12;html=1;rounded=0;exitX=0;exitY=0.5;exitDx=0;exitDy=0;entryX=0.463;entryY=1.154;entryDx=0;entryDy=0;entryPerimeter=0;" parent="1" source="whfUZhFvRBQpakOQNN74-25" target="whfUZhFvRBQpakOQNN74-19" edge="1">
          <mxGeometry width="160" relative="1" as="geometry">
            <mxPoint x="-373" y="880" as="sourcePoint" />
            <mxPoint x="-640" y="1020" as="targetPoint" />
            <Array as="points">
              <mxPoint x="-640" y="1260" />
            </Array>
          </mxGeometry>
        </mxCell>
        <mxCell id="ilpft1NIrWu3d606YRAC-35" value="" style="shape=requiredInterface;html=1;verticalLabelPosition=bottom;sketch=0;" parent="1" vertex="1">
          <mxGeometry x="-66" y="686" width="10" height="20" as="geometry" />
        </mxCell>
        <mxCell id="ilpft1NIrWu3d606YRAC-38" value="" style="endArrow=open;endFill=1;endSize=12;html=1;rounded=0;entryX=0.476;entryY=1.022;entryDx=0;entryDy=0;entryPerimeter=0;exitX=0.056;exitY=0.013;exitDx=0;exitDy=0;exitPerimeter=0;" parent="1" source="ilpft1NIrWu3d606YRAC-35" edge="1">
          <mxGeometry width="160" relative="1" as="geometry">
            <mxPoint x="-65" y="680" as="sourcePoint" />
            <mxPoint x="-66" y="656.5720000000001" as="targetPoint" />
          </mxGeometry>
        </mxCell>
        <mxCell id="ilpft1NIrWu3d606YRAC-39" value="" style="endArrow=none;html=1;rounded=0;entryX=0.345;entryY=-0.005;entryDx=0;entryDy=0;entryPerimeter=0;" parent="1" target="OSObfnmbwBIl3ngkpUWz-18" edge="1">
          <mxGeometry relative="1" as="geometry">
            <mxPoint x="-66" y="706" as="sourcePoint" />
            <mxPoint x="135.99" y="731.25" as="targetPoint" />
            <Array as="points">
              <mxPoint x="-66" y="726" />
              <mxPoint x="-66" y="750" />
            </Array>
          </mxGeometry>
        </mxCell>
        <mxCell id="ghrtqH5vHBBykUhaQ1Sb-6" value="" style="endArrow=open;endFill=1;endSize=12;html=1;rounded=0;entryX=0.5;entryY=0;entryDx=0;entryDy=0;exitX=0.5;exitY=1.013;exitDx=0;exitDy=0;exitPerimeter=0;" parent="1" target="BlP67hDM90NLHeMDUVXd-4" edge="1" source="OSObfnmbwBIl3ngkpUWz-43">
          <mxGeometry width="160" relative="1" as="geometry">
            <mxPoint x="680" y="-10" as="sourcePoint" />
            <mxPoint x="480" y="-10" as="targetPoint" />
            <Array as="points">
              <mxPoint x="680" />
              <mxPoint x="540" />
            </Array>
          </mxGeometry>
        </mxCell>
        <mxCell id="AMd5NBOn6dzHbg-F24vP-1" value="" style="endArrow=open;endFill=1;endSize=12;html=1;rounded=0;" parent="1" edge="1">
          <mxGeometry width="160" relative="1" as="geometry">
            <mxPoint x="740" y="-1090" as="sourcePoint" />
            <mxPoint x="930" y="-1090" as="targetPoint" />
          </mxGeometry>
        </mxCell>
        <mxCell id="AMd5NBOn6dzHbg-F24vP-2" value="" style="endArrow=open;endFill=1;endSize=12;html=1;rounded=0;exitX=0;exitY=-0.154;exitDx=0;exitDy=0;exitPerimeter=0;" parent="1" source="OSObfnmbwBIl3ngkpUWz-97" edge="1">
          <mxGeometry width="160" relative="1" as="geometry">
            <mxPoint x="840" y="-1090" as="sourcePoint" />
            <mxPoint x="730" y="-1090" as="targetPoint" />
          </mxGeometry>
        </mxCell>
        <mxCell id="AMd5NBOn6dzHbg-F24vP-3" value="- tela_sistema" style="text;strokeColor=none;fillColor=none;align=left;verticalAlign=top;spacingLeft=4;spacingRight=4;overflow=hidden;rotatable=0;points=[[0,0.5],[1,0.5]];portConstraint=eastwest;whiteSpace=wrap;html=1;" parent="1" vertex="1">
          <mxGeometry x="840" y="-1120" width="90" height="30" as="geometry" />
        </mxCell>
        <mxCell id="AMd5NBOn6dzHbg-F24vP-5" value="1" style="text;html=1;align=center;verticalAlign=middle;whiteSpace=wrap;rounded=0;" parent="1" vertex="1">
          <mxGeometry x="900" y="-1082" width="20" height="10" as="geometry" />
        </mxCell>
        <mxCell id="AMd5NBOn6dzHbg-F24vP-6" value="" style="endArrow=open;endFill=1;endSize=12;html=1;rounded=0;entryX=0.5;entryY=0;entryDx=0;entryDy=0;exitX=0.485;exitY=1.007;exitDx=0;exitDy=0;exitPerimeter=0;" parent="1" source="z-3jtgrBwZ_cu0U_5YFZ-91" target="OSObfnmbwBIl3ngkpUWz-35" edge="1">
          <mxGeometry width="160" relative="1" as="geometry">
            <mxPoint x="560" y="-880" as="sourcePoint" />
            <mxPoint x="560" y="-570" as="targetPoint" />
            <Array as="points">
              <mxPoint x="560" y="-600" />
              <mxPoint x="680" y="-600" />
            </Array>
          </mxGeometry>
        </mxCell>
        <mxCell id="AMd5NBOn6dzHbg-F24vP-7" value="- controlador_equipes" style="text;strokeColor=none;fillColor=none;align=left;verticalAlign=top;spacingLeft=4;spacingRight=4;overflow=hidden;rotatable=0;points=[[0,0.5],[1,0.5]];portConstraint=eastwest;whiteSpace=wrap;html=1;" parent="1" vertex="1">
          <mxGeometry x="687" y="-602" width="140" height="30" as="geometry" />
        </mxCell>
        <mxCell id="AMd5NBOn6dzHbg-F24vP-9" value="1" style="text;html=1;align=center;verticalAlign=middle;whiteSpace=wrap;rounded=0;" parent="1" vertex="1">
          <mxGeometry x="650" y="-592" width="20" height="10" as="geometry" />
        </mxCell>
        <mxCell id="AMd5NBOn6dzHbg-F24vP-10" value="" style="endArrow=open;endFill=1;endSize=12;html=1;rounded=0;entryX=0.5;entryY=0;entryDx=0;entryDy=0;" parent="1" target="whfUZhFvRBQpakOQNN74-39" edge="1">
          <mxGeometry width="160" relative="1" as="geometry">
            <mxPoint x="400" y="-960" as="sourcePoint" />
            <mxPoint x="20" y="-560" as="targetPoint" />
            <Array as="points">
              <mxPoint x="-20" y="-960" />
              <mxPoint x="-20" y="-720" />
            </Array>
          </mxGeometry>
        </mxCell>
        <mxCell id="AMd5NBOn6dzHbg-F24vP-11" value="- controlador_alunos" style="text;strokeColor=none;fillColor=none;align=left;verticalAlign=top;spacingLeft=4;spacingRight=4;overflow=hidden;rotatable=0;points=[[0,0.5],[1,0.5]];portConstraint=eastwest;whiteSpace=wrap;html=1;" parent="1" vertex="1">
          <mxGeometry x="-16" y="-440" width="140" height="30" as="geometry" />
        </mxCell>
        <mxCell id="AMd5NBOn6dzHbg-F24vP-12" value="1" style="text;html=1;align=center;verticalAlign=middle;whiteSpace=wrap;rounded=0;" parent="1" vertex="1">
          <mxGeometry x="-51" y="-430" width="20" height="10" as="geometry" />
        </mxCell>
        <mxCell id="AMd5NBOn6dzHbg-F24vP-15" value="" style="endArrow=open;endFill=1;endSize=12;html=1;rounded=0;entryX=0;entryY=0.5;entryDx=0;entryDy=0;" parent="1" target="z-3jtgrBwZ_cu0U_5YFZ-6" edge="1">
          <mxGeometry width="160" relative="1" as="geometry">
            <mxPoint x="250" y="-1050" as="sourcePoint" />
            <mxPoint x="-380" y="320" as="targetPoint" />
            <Array as="points">
              <mxPoint x="-960" y="-1050" />
              <mxPoint x="-960" y="120" />
              <mxPoint x="-960" y="520" />
              <mxPoint x="-960" y="925" />
            </Array>
          </mxGeometry>
        </mxCell>
        <mxCell id="AMd5NBOn6dzHbg-F24vP-16" value="- controlador_arbitros" style="text;strokeColor=none;fillColor=none;align=left;verticalAlign=top;spacingLeft=4;spacingRight=4;overflow=hidden;rotatable=0;points=[[0,0.5],[1,0.5]];portConstraint=eastwest;whiteSpace=wrap;html=1;" parent="1" vertex="1">
          <mxGeometry x="-950" y="893" width="140" height="30" as="geometry" />
        </mxCell>
        <mxCell id="AMd5NBOn6dzHbg-F24vP-17" value="1" style="text;html=1;align=center;verticalAlign=middle;whiteSpace=wrap;rounded=0;" parent="1" vertex="1">
          <mxGeometry x="-847" y="930" width="20" height="10" as="geometry" />
        </mxCell>
        <mxCell id="AMd5NBOn6dzHbg-F24vP-19" value="" style="shape=requiredInterface;html=1;verticalLabelPosition=bottom;sketch=0;" parent="1" vertex="1">
          <mxGeometry x="310" y="100" width="10" height="26" as="geometry" />
        </mxCell>
        <mxCell id="AMd5NBOn6dzHbg-F24vP-24" value="1" style="endArrow=open;html=1;endSize=12;startArrow=diamondThin;startSize=14;startFill=0;edgeStyle=orthogonalEdgeStyle;align=left;verticalAlign=bottom;rounded=0;exitX=0;exitY=0.154;exitDx=0;exitDy=0;exitPerimeter=0;entryX=1.004;entryY=0.796;entryDx=0;entryDy=0;entryPerimeter=0;" parent="1" target="42rT5aTTlDtqcZQRqHW7-7" edge="1">
          <mxGeometry x="-0.8094" y="-12" relative="1" as="geometry">
            <mxPoint x="359.82" y="112.00400000000013" as="sourcePoint" />
            <mxPoint x="209.99999999999983" y="112.91399999999999" as="targetPoint" />
            <Array as="points">
              <mxPoint x="285" y="112" />
            </Array>
            <mxPoint as="offset" />
          </mxGeometry>
        </mxCell>
        <mxCell id="AMd5NBOn6dzHbg-F24vP-28" value="" style="endArrow=none;endFill=0;endSize=12;html=1;rounded=0;exitX=0.045;exitY=1.034;exitDx=0;exitDy=0;exitPerimeter=0;" parent="1" source="AMd5NBOn6dzHbg-F24vP-77" edge="1">
          <mxGeometry width="160" relative="1" as="geometry">
            <mxPoint x="310" y="210" as="sourcePoint" />
            <mxPoint x="310" y="610" as="targetPoint" />
            <Array as="points">
              <mxPoint x="310" y="580" />
              <mxPoint x="310" y="680" />
            </Array>
          </mxGeometry>
        </mxCell>
        <mxCell id="AMd5NBOn6dzHbg-F24vP-29" value="" style="shape=requiredInterface;html=1;verticalLabelPosition=bottom;sketch=0;" parent="1" vertex="1">
          <mxGeometry x="310" y="680" width="10" height="30" as="geometry" />
        </mxCell>
        <mxCell id="AMd5NBOn6dzHbg-F24vP-37" value="" style="endArrow=open;endFill=1;endSize=12;html=1;rounded=0;entryX=0.75;entryY=0;entryDx=0;entryDy=0;" parent="1" target="OSObfnmbwBIl3ngkpUWz-18" edge="1">
          <mxGeometry width="160" relative="1" as="geometry">
            <mxPoint x="310" y="710" as="sourcePoint" />
            <mxPoint x="470" y="710" as="targetPoint" />
            <Array as="points">
              <mxPoint x="80" y="710" />
            </Array>
          </mxGeometry>
        </mxCell>
        <mxCell id="AMd5NBOn6dzHbg-F24vP-38" value="- controlador_cursos" style="text;strokeColor=none;fillColor=none;align=left;verticalAlign=top;spacingLeft=4;spacingRight=4;overflow=hidden;rotatable=0;points=[[0,0.5],[1,0.5]];portConstraint=eastwest;whiteSpace=wrap;html=1;" parent="1" vertex="1">
          <mxGeometry x="90" y="770" width="140" height="30" as="geometry" />
        </mxCell>
        <mxCell id="AMd5NBOn6dzHbg-F24vP-39" value="1" style="text;html=1;align=center;verticalAlign=middle;whiteSpace=wrap;rounded=0;" parent="1" vertex="1">
          <mxGeometry x="50" y="780" width="20" height="10" as="geometry" />
        </mxCell>
        <mxCell id="AMd5NBOn6dzHbg-F24vP-40" value="" style="endArrow=open;endFill=1;endSize=12;html=1;rounded=0;entryX=0.5;entryY=0;entryDx=0;entryDy=0;exitX=0.697;exitY=0.992;exitDx=0;exitDy=0;exitPerimeter=0;" parent="1" source="z-3jtgrBwZ_cu0U_5YFZ-91" target="eIAJ73TEnIPq5N8NY3QO-45" edge="1">
          <mxGeometry width="160" relative="1" as="geometry">
            <mxPoint x="630" y="-880" as="sourcePoint" />
            <mxPoint x="1180" y="-190" as="targetPoint" />
            <Array as="points">
              <mxPoint x="630" y="-720" />
              <mxPoint x="630" y="-610" />
              <mxPoint x="990" y="-610" />
              <mxPoint x="1420" y="-610" />
            </Array>
          </mxGeometry>
        </mxCell>
        <mxCell id="ilpft1NIrWu3d606YRAC-31" value="" style="endArrow=open;endFill=1;endSize=12;html=1;rounded=0;exitX=0.509;exitY=0;exitDx=0;exitDy=0;exitPerimeter=0;entryX=0.484;entryY=1.023;entryDx=0;entryDy=0;entryPerimeter=0;" parent="1" source="whfUZhFvRBQpakOQNN74-1" target="z-3jtgrBwZ_cu0U_5YFZ-1" edge="1">
          <mxGeometry width="160" relative="1" as="geometry">
            <mxPoint x="-313" y="306" as="sourcePoint" />
            <mxPoint x="-623" y="610" as="targetPoint" />
            <Array as="points">
              <mxPoint x="-623" y="720" />
              <mxPoint x="-623" y="650" />
              <mxPoint x="-623" y="630" />
              <mxPoint x="-623" y="620" />
            </Array>
          </mxGeometry>
        </mxCell>
        <mxCell id="AMd5NBOn6dzHbg-F24vP-42" value="" style="endArrow=open;endFill=1;endSize=12;html=1;rounded=0;entryX=0.5;entryY=0;entryDx=0;entryDy=0;" parent="1" edge="1">
          <mxGeometry width="160" relative="1" as="geometry">
            <mxPoint x="840" y="-880" as="sourcePoint" />
            <mxPoint x="1748.3500000000004" y="656" as="targetPoint" />
            <Array as="points">
              <mxPoint x="1418.35" y="-880" />
              <mxPoint x="1848.35" y="-880" />
              <mxPoint x="1850" y="40" />
              <mxPoint x="1748.35" y="40" />
            </Array>
          </mxGeometry>
        </mxCell>
        <mxCell id="AMd5NBOn6dzHbg-F24vP-44" value="- controlador_partidas" style="text;strokeColor=none;fillColor=none;align=left;verticalAlign=top;spacingLeft=4;spacingRight=4;overflow=hidden;rotatable=0;points=[[0,0.5],[1,0.5]];portConstraint=eastwest;whiteSpace=wrap;html=1;" parent="1" vertex="1">
          <mxGeometry x="1750" y="622" width="140" height="30" as="geometry" />
        </mxCell>
        <mxCell id="AMd5NBOn6dzHbg-F24vP-45" value="1" style="text;html=1;align=center;verticalAlign=middle;whiteSpace=wrap;rounded=0;" parent="1" vertex="1">
          <mxGeometry x="1720" y="632" width="20" height="10" as="geometry" />
        </mxCell>
        <mxCell id="AMd5NBOn6dzHbg-F24vP-46" value="" style="endArrow=open;endFill=1;endSize=12;html=1;rounded=0;exitX=0;exitY=0.5;exitDx=0;exitDy=0;entryX=0.417;entryY=1.022;entryDx=0;entryDy=0;entryPerimeter=0;" parent="1" target="OSObfnmbwBIl3ngkpUWz-26" edge="1">
          <mxGeometry width="160" relative="1" as="geometry">
            <mxPoint x="60" y="1259" as="sourcePoint" />
            <mxPoint y="1020" as="targetPoint" />
            <Array as="points">
              <mxPoint x="-40" y="1260" />
            </Array>
          </mxGeometry>
        </mxCell>
        <mxCell id="AMd5NBOn6dzHbg-F24vP-47" value="- tela_arbitro" style="text;strokeColor=none;fillColor=none;align=left;verticalAlign=top;spacingLeft=4;spacingRight=4;overflow=hidden;rotatable=0;points=[[0,0.5],[1,0.5]];portConstraint=eastwest;whiteSpace=wrap;html=1;" parent="1" vertex="1">
          <mxGeometry x="-610" y="1230" width="80" height="30" as="geometry" />
        </mxCell>
        <mxCell id="AMd5NBOn6dzHbg-F24vP-49" value="1" style="text;html=1;align=center;verticalAlign=middle;whiteSpace=wrap;rounded=0;" parent="1" vertex="1">
          <mxGeometry x="-550" y="1270" width="20" height="10" as="geometry" />
        </mxCell>
        <mxCell id="AMd5NBOn6dzHbg-F24vP-50" value="" style="endArrow=open;endFill=1;endSize=12;html=1;rounded=0;entryX=0;entryY=0.5;entryDx=0;entryDy=0;" parent="1" edge="1">
          <mxGeometry width="160" relative="1" as="geometry">
            <mxPoint x="-40" y="1150" as="sourcePoint" />
            <mxPoint x="60" y="1259" as="targetPoint" />
            <Array as="points">
              <mxPoint x="-40" y="1260" />
            </Array>
          </mxGeometry>
        </mxCell>
        <mxCell id="AMd5NBOn6dzHbg-F24vP-51" value="- tela_curso" style="text;strokeColor=none;fillColor=none;align=left;verticalAlign=top;spacingLeft=4;spacingRight=4;overflow=hidden;rotatable=0;points=[[0,0.5],[1,0.5]];portConstraint=eastwest;whiteSpace=wrap;html=1;" parent="1" vertex="1">
          <mxGeometry x="-20" y="1230" width="80" height="30" as="geometry" />
        </mxCell>
        <mxCell id="AMd5NBOn6dzHbg-F24vP-52" value="1" style="text;html=1;align=center;verticalAlign=middle;whiteSpace=wrap;rounded=0;" parent="1" vertex="1">
          <mxGeometry x="30" y="1270" width="20" height="10" as="geometry" />
        </mxCell>
        <mxCell id="AMd5NBOn6dzHbg-F24vP-54" value="*" style="text;html=1;align=center;verticalAlign=middle;whiteSpace=wrap;rounded=0;" parent="1" vertex="1">
          <mxGeometry x="-610" y="622" width="20" height="10" as="geometry" />
        </mxCell>
        <mxCell id="AMd5NBOn6dzHbg-F24vP-56" value="- cursos" style="text;strokeColor=none;fillColor=none;align=left;verticalAlign=top;spacingLeft=4;spacingRight=4;overflow=hidden;rotatable=0;points=[[0,0.5],[1,0.5]];portConstraint=eastwest;whiteSpace=wrap;html=1;" parent="1" vertex="1">
          <mxGeometry x="-126" y="664" width="60" height="26" as="geometry" />
        </mxCell>
        <mxCell id="AMd5NBOn6dzHbg-F24vP-57" value="*" style="text;html=1;align=center;verticalAlign=middle;whiteSpace=wrap;rounded=0;" parent="1" vertex="1">
          <mxGeometry x="-56" y="672" width="16" height="10" as="geometry" />
        </mxCell>
        <mxCell id="AMd5NBOn6dzHbg-F24vP-60" value="" style="endArrow=open;endFill=1;endSize=12;html=1;rounded=0;entryX=0.5;entryY=0;entryDx=0;entryDy=0;exitX=0.319;exitY=1.009;exitDx=0;exitDy=0;exitPerimeter=0;" parent="1" target="42rT5aTTlDtqcZQRqHW7-6" edge="1" source="whfUZhFvRBQpakOQNN74-47">
          <mxGeometry width="160" relative="1" as="geometry">
            <mxPoint x="-85.14999999999999" y="-74" as="sourcePoint" />
            <mxPoint x="-85.14999999999999" y="27" as="targetPoint" />
            <Array as="points" />
          </mxGeometry>
        </mxCell>
        <mxCell id="AMd5NBOn6dzHbg-F24vP-61" value="- alunos" style="text;strokeColor=none;fillColor=none;align=left;verticalAlign=top;spacingLeft=4;spacingRight=4;overflow=hidden;rotatable=0;points=[[0,0.5],[1,0.5]];portConstraint=eastwest;whiteSpace=wrap;html=1;" parent="1" vertex="1">
          <mxGeometry x="-80" y="2" width="60" height="26" as="geometry" />
        </mxCell>
        <mxCell id="AMd5NBOn6dzHbg-F24vP-62" value="*" style="text;html=1;align=center;verticalAlign=middle;whiteSpace=wrap;rounded=0;" parent="1" vertex="1">
          <mxGeometry x="-115" y="18" width="20" height="10" as="geometry" />
        </mxCell>
        <mxCell id="AMd5NBOn6dzHbg-F24vP-64" value="" style="endArrow=open;endFill=1;endSize=12;html=1;rounded=0;entryX=0.999;entryY=1.054;entryDx=0;entryDy=0;entryPerimeter=0;exitX=0.532;exitY=1.092;exitDx=0;exitDy=0;exitPerimeter=0;" parent="1" target="whfUZhFvRBQpakOQNN74-43" edge="1">
          <mxGeometry width="160" relative="1" as="geometry">
            <mxPoint x="240" y="-450" as="sourcePoint" />
            <mxPoint x="240.14999999999998" y="-339" as="targetPoint" />
            <Array as="points">
              <mxPoint x="240" y="-156" />
            </Array>
          </mxGeometry>
        </mxCell>
        <mxCell id="AMd5NBOn6dzHbg-F24vP-65" value="" style="endArrow=open;endFill=1;endSize=12;html=1;rounded=0;exitX=0.999;exitY=1.05;exitDx=0;exitDy=0;exitPerimeter=0;" parent="1" edge="1">
          <mxGeometry width="160" relative="1" as="geometry">
            <mxPoint x="160.0000000000001" y="-155.70000000000005" as="sourcePoint" />
            <mxPoint x="240" y="-489" as="targetPoint" />
            <Array as="points">
              <mxPoint x="240.36" y="-155" />
            </Array>
          </mxGeometry>
        </mxCell>
        <mxCell id="AMd5NBOn6dzHbg-F24vP-66" value="- tela_aluno" style="text;strokeColor=none;fillColor=none;align=left;verticalAlign=top;spacingLeft=4;spacingRight=4;overflow=hidden;rotatable=0;points=[[0,0.5],[1,0.5]];portConstraint=eastwest;whiteSpace=wrap;html=1;" parent="1" vertex="1">
          <mxGeometry x="160" y="-481" width="80" height="30" as="geometry" />
        </mxCell>
        <mxCell id="AMd5NBOn6dzHbg-F24vP-67" value="1" style="text;html=1;align=center;verticalAlign=middle;whiteSpace=wrap;rounded=0;" parent="1" vertex="1">
          <mxGeometry x="250" y="-471" width="20" height="10" as="geometry" />
        </mxCell>
        <mxCell id="AMd5NBOn6dzHbg-F24vP-69" value="- equipes" style="text;strokeColor=none;fillColor=none;align=left;verticalAlign=top;spacingLeft=4;spacingRight=4;overflow=hidden;rotatable=0;points=[[0,0.5],[1,0.5]];portConstraint=eastwest;whiteSpace=wrap;html=1;" parent="1" vertex="1">
          <mxGeometry x="550" y="2" width="60" height="26" as="geometry" />
        </mxCell>
        <mxCell id="AMd5NBOn6dzHbg-F24vP-70" value="*" style="text;html=1;align=center;verticalAlign=middle;whiteSpace=wrap;rounded=0;" parent="1" vertex="1">
          <mxGeometry x="510" y="10" width="20" height="10" as="geometry" />
        </mxCell>
        <mxCell id="AMd5NBOn6dzHbg-F24vP-71" value="" style="endArrow=open;endFill=1;endSize=12;html=1;rounded=0;entryX=0.999;entryY=0.846;entryDx=0;entryDy=0;entryPerimeter=0;exitX=0;exitY=1;exitDx=0;exitDy=0;exitPerimeter=0;" parent="1" source="AMd5NBOn6dzHbg-F24vP-72" edge="1">
          <mxGeometry width="160" relative="1" as="geometry">
            <mxPoint x="940" y="-570" as="sourcePoint" />
            <mxPoint x="860" y="-320" as="targetPoint" />
            <Array as="points">
              <mxPoint x="940" y="-320" />
            </Array>
          </mxGeometry>
        </mxCell>
        <mxCell id="AMd5NBOn6dzHbg-F24vP-72" value="" style="shape=requiredInterface;html=1;verticalLabelPosition=bottom;sketch=0;" parent="1" vertex="1">
          <mxGeometry x="940" y="-620" width="10" height="20" as="geometry" />
        </mxCell>
        <mxCell id="AMd5NBOn6dzHbg-F24vP-73" value="" style="endArrow=open;endFill=1;endSize=12;html=1;rounded=0;exitX=0.005;exitY=0.012;exitDx=0;exitDy=0;exitPerimeter=0;" parent="1" source="AMd5NBOn6dzHbg-F24vP-72" edge="1">
          <mxGeometry width="160" relative="1" as="geometry">
            <mxPoint x="1040" y="-820" as="sourcePoint" />
            <mxPoint x="940" y="-640" as="targetPoint" />
            <Array as="points" />
          </mxGeometry>
        </mxCell>
        <mxCell id="AMd5NBOn6dzHbg-F24vP-74" value="- tela_equipe" style="text;strokeColor=none;fillColor=none;align=left;verticalAlign=top;spacingLeft=4;spacingRight=4;overflow=hidden;rotatable=0;points=[[0,0.5],[1,0.5]];portConstraint=eastwest;whiteSpace=wrap;html=1;" parent="1" vertex="1">
          <mxGeometry x="850" y="-640" width="80" height="30" as="geometry" />
        </mxCell>
        <mxCell id="AMd5NBOn6dzHbg-F24vP-75" value="1" style="text;html=1;align=center;verticalAlign=middle;whiteSpace=wrap;rounded=0;" parent="1" vertex="1">
          <mxGeometry x="950" y="-630" width="20" height="10" as="geometry" />
        </mxCell>
        <mxCell id="AMd5NBOn6dzHbg-F24vP-77" value="" style="shape=requiredInterface;html=1;verticalLabelPosition=bottom;sketch=0;" parent="1" vertex="1">
          <mxGeometry x="310" y="180" width="10" height="26" as="geometry" />
        </mxCell>
        <mxCell id="AMd5NBOn6dzHbg-F24vP-78" value="" style="endArrow=none;html=1;rounded=0;exitX=0.049;exitY=0.008;exitDx=0;exitDy=0;exitPerimeter=0;entryX=0.055;entryY=0.99;entryDx=0;entryDy=0;entryPerimeter=0;" parent="1" source="AMd5NBOn6dzHbg-F24vP-77" target="AMd5NBOn6dzHbg-F24vP-19" edge="1">
          <mxGeometry width="50" height="50" relative="1" as="geometry">
            <mxPoint x="310" y="180" as="sourcePoint" />
            <mxPoint x="310" y="130" as="targetPoint" />
          </mxGeometry>
        </mxCell>
        <mxCell id="AMd5NBOn6dzHbg-F24vP-79" value="" style="endArrow=open;endFill=1;endSize=12;html=1;rounded=0;exitX=0.491;exitY=0;exitDx=0;exitDy=0;exitPerimeter=0;entryX=0.999;entryY=0.605;entryDx=0;entryDy=0;entryPerimeter=0;" parent="1" source="VWIoromdeVteyUXSWohZ-15" target="BlP67hDM90NLHeMDUVXd-10" edge="1">
          <mxGeometry width="160" relative="1" as="geometry">
            <mxPoint x="980" y="580" as="sourcePoint" />
            <mxPoint x="970" y="440" as="targetPoint" />
            <Array as="points">
              <mxPoint x="1084" y="520" />
              <mxPoint x="890" y="520" />
              <mxPoint x="890" y="211" />
            </Array>
          </mxGeometry>
        </mxCell>
        <mxCell id="AMd5NBOn6dzHbg-F24vP-80" value="- equipes" style="text;strokeColor=none;fillColor=none;align=left;verticalAlign=top;spacingLeft=4;spacingRight=4;overflow=hidden;rotatable=0;points=[[0,0.5],[1,0.5]];portConstraint=eastwest;whiteSpace=wrap;html=1;" parent="1" vertex="1">
          <mxGeometry x="735" y="210" width="70" height="26" as="geometry" />
        </mxCell>
        <mxCell id="AMd5NBOn6dzHbg-F24vP-81" value="2" style="text;html=1;align=center;verticalAlign=middle;whiteSpace=wrap;rounded=0;" parent="1" vertex="1">
          <mxGeometry x="740" y="196" width="10" height="10" as="geometry" />
        </mxCell>
        <mxCell id="AMd5NBOn6dzHbg-F24vP-83" value="1" style="endArrow=open;html=1;endSize=12;startArrow=diamondThin;startSize=14;startFill=0;edgeStyle=orthogonalEdgeStyle;align=left;verticalAlign=bottom;rounded=0;exitX=0.445;exitY=1.035;exitDx=0;exitDy=0;exitPerimeter=0;entryX=0.606;entryY=0;entryDx=0;entryDy=0;entryPerimeter=0;" parent="1" source="ra7vQ8JuPsrU5PklDh2I-6" edge="1" target="VWIoromdeVteyUXSWohZ-15">
          <mxGeometry x="-0.82" y="-1" relative="1" as="geometry">
            <mxPoint x="1460" y="486.38" as="sourcePoint" />
            <mxPoint x="1160" y="580" as="targetPoint" />
            <mxPoint as="offset" />
            <Array as="points">
              <mxPoint x="1160" y="486" />
              <mxPoint x="1160" y="486" />
            </Array>
          </mxGeometry>
        </mxCell>
        <mxCell id="AMd5NBOn6dzHbg-F24vP-85" value="" style="endArrow=open;endFill=1;endSize=12;html=1;rounded=0;exitX=-0.002;exitY=0.376;exitDx=0;exitDy=0;exitPerimeter=0;" parent="1" source="ghrtqH5vHBBykUhaQ1Sb-17" edge="1">
          <mxGeometry width="160" relative="1" as="geometry">
            <mxPoint x="1560" y="777" as="sourcePoint" />
            <mxPoint x="1420" y="777" as="targetPoint" />
            <Array as="points">
              <mxPoint x="1450" y="777" />
            </Array>
          </mxGeometry>
        </mxCell>
        <mxCell id="AMd5NBOn6dzHbg-F24vP-86" value="- partidas" style="text;strokeColor=none;fillColor=none;align=left;verticalAlign=top;spacingLeft=4;spacingRight=4;overflow=hidden;rotatable=0;points=[[0,0.5],[1,0.5]];portConstraint=eastwest;whiteSpace=wrap;html=1;" parent="1" vertex="1">
          <mxGeometry x="1430" y="780" width="70" height="26" as="geometry" />
        </mxCell>
        <mxCell id="AMd5NBOn6dzHbg-F24vP-87" value="*" style="text;html=1;align=center;verticalAlign=middle;whiteSpace=wrap;rounded=0;" parent="1" vertex="1">
          <mxGeometry x="1440" y="760" width="10" height="10" as="geometry" />
        </mxCell>
        <mxCell id="AMd5NBOn6dzHbg-F24vP-90" value="" style="endArrow=open;endFill=1;endSize=12;html=1;rounded=0;entryX=0.445;entryY=0.001;entryDx=0;entryDy=0;entryPerimeter=0;" parent="1" target="eIAJ73TEnIPq5N8NY3QO-37" edge="1">
          <mxGeometry width="160" relative="1" as="geometry">
            <mxPoint x="1740" y="950" as="sourcePoint" />
            <mxPoint x="1710" y="930" as="targetPoint" />
            <Array as="points">
              <mxPoint x="1740" y="1000" />
              <mxPoint x="1950" y="1000" />
            </Array>
          </mxGeometry>
        </mxCell>
        <mxCell id="AMd5NBOn6dzHbg-F24vP-91" value="" style="endArrow=open;endFill=1;endSize=12;html=1;rounded=0;exitX=0.445;exitY=-0.007;exitDx=0;exitDy=0;exitPerimeter=0;" parent="1" source="eIAJ73TEnIPq5N8NY3QO-37" edge="1">
          <mxGeometry width="160" relative="1" as="geometry">
            <mxPoint x="1670" y="1010" as="sourcePoint" />
            <mxPoint x="1740" y="950" as="targetPoint" />
            <Array as="points">
              <mxPoint x="1950" y="1000" />
              <mxPoint x="1740" y="1000" />
            </Array>
          </mxGeometry>
        </mxCell>
        <mxCell id="AMd5NBOn6dzHbg-F24vP-92" value="tela_partida" style="text;strokeColor=none;fillColor=none;align=left;verticalAlign=top;spacingLeft=4;spacingRight=4;overflow=hidden;rotatable=0;points=[[0,0.5],[1,0.5]];portConstraint=eastwest;whiteSpace=wrap;html=1;" parent="1" vertex="1">
          <mxGeometry x="1960" y="1006" width="140" height="30" as="geometry" />
        </mxCell>
        <mxCell id="AMd5NBOn6dzHbg-F24vP-93" value="1" style="text;html=1;align=center;verticalAlign=middle;whiteSpace=wrap;rounded=0;" parent="1" vertex="1">
          <mxGeometry x="1920" y="1016" width="20" height="10" as="geometry" />
        </mxCell>
        <mxCell id="AMd5NBOn6dzHbg-F24vP-95" value="" style="endArrow=open;endFill=1;endSize=12;html=1;rounded=0;exitX=0.5;exitY=1;exitDx=0;exitDy=0;" parent="1" source="eIAJ73TEnIPq5N8NY3QO-45" edge="1">
          <mxGeometry width="160" relative="1" as="geometry">
            <mxPoint x="1420" y="-80" as="sourcePoint" />
            <mxPoint x="1179" y="40" as="targetPoint" />
            <Array as="points">
              <mxPoint x="1420" y="-59" />
              <mxPoint x="1179" y="-59" />
            </Array>
          </mxGeometry>
        </mxCell>
        <mxCell id="AMd5NBOn6dzHbg-F24vP-96" value="- campeonatos" style="text;strokeColor=none;fillColor=none;align=left;verticalAlign=top;spacingLeft=4;spacingRight=4;overflow=hidden;rotatable=0;points=[[0,0.5],[1,0.5]];portConstraint=eastwest;whiteSpace=wrap;html=1;" parent="1" vertex="1">
          <mxGeometry x="1180" width="90" height="26" as="geometry" />
        </mxCell>
        <mxCell id="AMd5NBOn6dzHbg-F24vP-97" value="*" style="text;html=1;align=center;verticalAlign=middle;whiteSpace=wrap;rounded=0;" parent="1" vertex="1">
          <mxGeometry x="1161" y="10" width="10" height="10" as="geometry" />
        </mxCell>
        <mxCell id="AMd5NBOn6dzHbg-F24vP-98" value="" style="endArrow=open;endFill=1;endSize=12;html=1;rounded=0;entryX=0.715;entryY=1.015;entryDx=0;entryDy=0;entryPerimeter=0;" parent="1" target="eIAJ73TEnIPq5N8NY3QO-70" edge="1">
          <mxGeometry width="160" relative="1" as="geometry">
            <mxPoint x="1600" y="-280" as="sourcePoint" />
            <mxPoint x="1760" y="-280" as="targetPoint" />
            <Array as="points">
              <mxPoint x="1720" y="-280" />
            </Array>
          </mxGeometry>
        </mxCell>
        <mxCell id="AMd5NBOn6dzHbg-F24vP-99" value="" style="endArrow=open;endFill=1;endSize=12;html=1;rounded=0;" parent="1" edge="1">
          <mxGeometry width="160" relative="1" as="geometry">
            <mxPoint x="1720" y="-720" as="sourcePoint" />
            <mxPoint x="1600" y="-280" as="targetPoint" />
            <Array as="points">
              <mxPoint x="1720" y="-280" />
            </Array>
          </mxGeometry>
        </mxCell>
        <mxCell id="AMd5NBOn6dzHbg-F24vP-100" value="- tela_campeonato" style="text;strokeColor=none;fillColor=none;align=left;verticalAlign=top;spacingLeft=4;spacingRight=4;overflow=hidden;rotatable=0;points=[[0,0.5],[1,0.5]];portConstraint=eastwest;whiteSpace=wrap;html=1;" parent="1" vertex="1">
          <mxGeometry x="1600" y="-710" width="110" height="30" as="geometry" />
        </mxCell>
        <mxCell id="AMd5NBOn6dzHbg-F24vP-101" value="1" style="text;html=1;align=center;verticalAlign=middle;whiteSpace=wrap;rounded=0;" parent="1" vertex="1">
          <mxGeometry x="1730" y="-700" width="20" height="10" as="geometry" />
        </mxCell>
        <mxCell id="AMd5NBOn6dzHbg-F24vP-18" value="" style="endArrow=none;endFill=0;endSize=12;html=1;rounded=0;entryX=0;entryY=0;entryDx=0;entryDy=0;entryPerimeter=0;" parent="1" target="AMd5NBOn6dzHbg-F24vP-19" edge="1">
          <mxGeometry width="160" relative="1" as="geometry">
            <mxPoint x="460" y="-850" as="sourcePoint" />
            <mxPoint x="310" y="80" as="targetPoint" />
            <Array as="points">
              <mxPoint x="460" y="-780" />
              <mxPoint x="460" y="-390" />
              <mxPoint x="400" y="-390" />
              <mxPoint x="360" y="-390" />
              <mxPoint x="310" y="-390" />
            </Array>
          </mxGeometry>
        </mxCell>
        <mxCell id="kZPmR0hPyekQcfB9bHDZ-4" value="- controlador_campeonatos" style="text;strokeColor=none;fillColor=none;align=left;verticalAlign=top;spacingLeft=4;spacingRight=4;overflow=hidden;rotatable=0;points=[[0,0.5],[1,0.5]];portConstraint=eastwest;whiteSpace=wrap;html=1;" parent="1" vertex="1">
          <mxGeometry x="1430" y="-501" width="160" height="30" as="geometry" />
        </mxCell>
        <mxCell id="kZPmR0hPyekQcfB9bHDZ-5" value="1" style="text;html=1;align=center;verticalAlign=middle;whiteSpace=wrap;rounded=0;" parent="1" vertex="1">
          <mxGeometry x="1390" y="-489" width="20" height="10" as="geometry" />
        </mxCell>
        <mxCell id="kZPmR0hPyekQcfB9bHDZ-6" value="&lt;font face=&quot;Times New Roman&quot; style=&quot;font-size: 36px;&quot;&gt;Grupo 04&lt;/font&gt;&lt;div&gt;&lt;font face=&quot;Times New Roman&quot; style=&quot;font-size: 36px;&quot;&gt;Maria Eduarda Betman Damazio Jaques&lt;/font&gt;&lt;/div&gt;&lt;div&gt;&lt;font face=&quot;Times New Roman&quot; style=&quot;font-size: 36px;&quot;&gt;Rafael Ribeiro de Lima&lt;/font&gt;&lt;/div&gt;" style="text;html=1;align=left;verticalAlign=middle;whiteSpace=wrap;rounded=0;" parent="1" vertex="1">
          <mxGeometry x="-1510" y="-1310" width="600" height="30" as="geometry" />
        </mxCell>
        <mxCell id="z-3jtgrBwZ_cu0U_5YFZ-3" value="" style="endArrow=open;endFill=1;endSize=12;html=1;rounded=0;" edge="1" parent="1">
          <mxGeometry width="160" relative="1" as="geometry">
            <mxPoint x="250" y="-1050" as="sourcePoint" />
            <mxPoint x="400" y="-1050" as="targetPoint" />
          </mxGeometry>
        </mxCell>
        <mxCell id="z-3jtgrBwZ_cu0U_5YFZ-9" value="" style="endArrow=open;endFill=1;endSize=12;html=1;rounded=0;" edge="1" parent="1">
          <mxGeometry width="160" relative="1" as="geometry">
            <mxPoint x="250" y="-960" as="sourcePoint" />
            <mxPoint x="400" y="-960" as="targetPoint" />
          </mxGeometry>
        </mxCell>
        <mxCell id="z-3jtgrBwZ_cu0U_5YFZ-17" value="" style="endArrow=open;endFill=1;endSize=12;html=1;rounded=0;" edge="1" parent="1">
          <mxGeometry width="160" relative="1" as="geometry">
            <mxPoint x="460" y="-744" as="sourcePoint" />
            <mxPoint x="460" y="-884" as="targetPoint" />
          </mxGeometry>
        </mxCell>
        <mxCell id="z-3jtgrBwZ_cu0U_5YFZ-24" value="" style="endArrow=open;endFill=1;endSize=12;html=1;rounded=0;entryX=0.485;entryY=0.987;entryDx=0;entryDy=0;entryPerimeter=0;" edge="1" parent="1" target="z-3jtgrBwZ_cu0U_5YFZ-91">
          <mxGeometry width="160" relative="1" as="geometry">
            <mxPoint x="560" y="-740" as="sourcePoint" />
            <mxPoint x="560" y="-852" as="targetPoint" />
          </mxGeometry>
        </mxCell>
        <mxCell id="z-3jtgrBwZ_cu0U_5YFZ-73" value="" style="endArrow=open;endFill=1;endSize=12;html=1;rounded=0;entryX=1.001;entryY=0.921;entryDx=0;entryDy=0;entryPerimeter=0;" edge="1" parent="1" target="M5kbGhWNzv6cmUeK2LbQ-7">
          <mxGeometry width="160" relative="1" as="geometry">
            <mxPoint x="840" y="-880" as="sourcePoint" />
            <mxPoint x="870" y="-990" as="targetPoint" />
            <Array as="points">
              <mxPoint x="840" y="-1016" />
            </Array>
          </mxGeometry>
        </mxCell>
        <mxCell id="z-3jtgrBwZ_cu0U_5YFZ-77" value="" style="endArrow=open;endFill=1;endSize=12;html=1;rounded=0;entryX=0.697;entryY=1.009;entryDx=0;entryDy=0;entryPerimeter=0;" edge="1" parent="1" target="z-3jtgrBwZ_cu0U_5YFZ-91">
          <mxGeometry width="160" relative="1" as="geometry">
            <mxPoint x="630" y="-760" as="sourcePoint" />
            <mxPoint x="630" y="-880" as="targetPoint" />
          </mxGeometry>
        </mxCell>
      </root>
    </mxGraphModel>
  </diagram>
</mxfile>
